%FSLAX45Y45*%
G04 Gerber Fmt 4.5, Leading zero omitted, Abs format (unit mm)*
G04 Created by KiCad (PCBNEW 4.0.7) date 06/30/19 19:59:10*
%MOMM*%
%LPD*%
G01*
G04 APERTURE LIST*
%ADD10C,0.127000*%
%ADD11C,0.150000*%
%ADD12C,0.200000*%
%ADD13C,0.300000*%
G04 APERTURE END LIST*
D10*
D11*
X20091400Y-9575800D02*
X20091400Y-4495800D01*
X8153400Y-9575800D02*
X20091400Y-9575800D01*
X8153400Y-4495800D02*
X8153400Y-9575800D01*
X20091400Y-4495800D02*
X8153400Y-4495800D01*
D12*
X12924320Y-6491140D02*
X12964320Y-6531140D01*
X12964320Y-6491140D02*
X12924320Y-6531140D01*
X13184350Y-6175250D02*
X13224350Y-6215250D01*
X13224350Y-6175250D02*
X13184350Y-6215250D01*
X13355030Y-8539900D02*
X13395030Y-8579900D01*
X13395030Y-8539900D02*
X13355030Y-8579900D01*
X14320170Y-6622410D02*
X14360170Y-6662410D01*
X14360170Y-6622410D02*
X14320170Y-6662410D01*
X14828250Y-8229810D02*
X14868250Y-8269810D01*
X14868250Y-8229810D02*
X14828250Y-8269810D01*
X14930790Y-6706880D02*
X14970790Y-6746880D01*
X14970790Y-6706880D02*
X14930790Y-6746880D01*
X15031430Y-8333620D02*
X15071430Y-8373620D01*
X15071430Y-8333620D02*
X15031430Y-8373620D01*
X10779000Y-8931000D02*
G75*
G03X10779000Y-8931000I-35000J0D01*
G01*
X10780000Y-8168000D02*
G75*
G03X10780000Y-8168000I-35000J0D01*
G01*
X11287000Y-8931000D02*
G75*
G03X11287000Y-8931000I-35000J0D01*
G01*
X11289000Y-8168000D02*
G75*
G03X11289000Y-8168000I-35000J0D01*
G01*
X11796000Y-8168000D02*
G75*
G03X11796000Y-8168000I-35000J0D01*
G01*
X11796000Y-8930000D02*
G75*
G03X11796000Y-8930000I-35000J0D01*
G01*
X12558000Y-8168000D02*
G75*
G03X12558000Y-8168000I-35000J0D01*
G01*
X12558000Y-8930000D02*
G75*
G03X12558000Y-8930000I-35000J0D01*
G01*
X9509000Y-5349900D02*
X9509000Y-5426100D01*
X9470900Y-5388000D02*
X9547100Y-5388000D01*
X9509000Y-5603900D02*
X9509000Y-5680100D01*
X9470900Y-5642000D02*
X9547100Y-5642000D01*
X9509000Y-5857900D02*
X9509000Y-5934100D01*
X9470900Y-5896000D02*
X9547100Y-5896000D01*
X9509000Y-6111900D02*
X9509000Y-6188100D01*
X9470900Y-6150000D02*
X9547100Y-6150000D01*
X9509000Y-6365900D02*
X9509000Y-6442100D01*
X9470900Y-6404000D02*
X9547100Y-6404000D01*
X9509000Y-6619900D02*
X9509000Y-6696100D01*
X9470900Y-6658000D02*
X9547100Y-6658000D01*
X9509000Y-6873900D02*
X9509000Y-6950100D01*
X9470900Y-6912000D02*
X9547100Y-6912000D01*
X9509000Y-7127900D02*
X9509000Y-7204100D01*
X9470900Y-7166000D02*
X9547100Y-7166000D01*
X9509000Y-7381900D02*
X9509000Y-7458100D01*
X9470900Y-7420000D02*
X9547100Y-7420000D01*
X9509000Y-7635900D02*
X9509000Y-7712100D01*
X9470900Y-7674000D02*
X9547100Y-7674000D01*
X9509000Y-7889900D02*
X9509000Y-7966100D01*
X9470900Y-7928000D02*
X9547100Y-7928000D01*
X9509000Y-8143900D02*
X9509000Y-8220100D01*
X9470900Y-8182000D02*
X9547100Y-8182000D01*
X9509000Y-8397900D02*
X9509000Y-8474100D01*
X9470900Y-8436000D02*
X9547100Y-8436000D01*
X9509000Y-8651900D02*
X9509000Y-8728100D01*
X9470900Y-8690000D02*
X9547100Y-8690000D01*
X10817156Y-6394556D02*
X10817156Y-6323844D01*
X10746444Y-6323844D01*
X10746444Y-6394556D01*
X10817156Y-6394556D01*
X10817156Y-6948556D02*
X10817156Y-6877844D01*
X10746444Y-6877844D01*
X10746444Y-6948556D01*
X10817156Y-6948556D01*
X13526156Y-6085056D02*
X13526156Y-6014344D01*
X13455444Y-6014344D01*
X13455444Y-6085056D01*
X13526156Y-6085056D01*
X13526156Y-6517056D02*
X13526156Y-6446344D01*
X13455444Y-6446344D01*
X13455444Y-6517056D01*
X13526156Y-6517056D01*
X18669356Y-7793356D02*
X18669356Y-7722644D01*
X18598644Y-7722644D01*
X18598644Y-7793356D01*
X18669356Y-7793356D01*
X18669356Y-9243356D02*
X18669356Y-9172644D01*
X18598644Y-9172644D01*
X18598644Y-9243356D01*
X18669356Y-9243356D01*
X18919356Y-9243356D02*
X18919356Y-9172644D01*
X18848644Y-9172644D01*
X18848644Y-9243356D01*
X18919356Y-9243356D01*
X19169356Y-7793356D02*
X19169356Y-7722644D01*
X19098644Y-7722644D01*
X19098644Y-7793356D01*
X19169356Y-7793356D01*
X19169356Y-9243356D02*
X19169356Y-9172644D01*
X19098644Y-9172644D01*
X19098644Y-9243356D01*
X19169356Y-9243356D01*
X14184000Y-6910800D02*
X14234800Y-6860000D01*
X14184000Y-6809200D01*
X14133200Y-6860000D01*
X14184000Y-6910800D01*
X14184000Y-7164800D02*
X14234800Y-7114000D01*
X14184000Y-7063200D01*
X14133200Y-7114000D01*
X14184000Y-7164800D01*
X14184000Y-7418800D02*
X14234800Y-7368000D01*
X14184000Y-7317200D01*
X14133200Y-7368000D01*
X14184000Y-7418800D01*
X14184000Y-7672800D02*
X14234800Y-7622000D01*
X14184000Y-7571200D01*
X14133200Y-7622000D01*
X14184000Y-7672800D01*
X14184000Y-7926800D02*
X14234800Y-7876000D01*
X14184000Y-7825200D01*
X14133200Y-7876000D01*
X14184000Y-7926800D01*
X14184000Y-8180800D02*
X14234800Y-8130000D01*
X14184000Y-8079200D01*
X14133200Y-8130000D01*
X14184000Y-8180800D01*
X14184000Y-8434800D02*
X14234800Y-8384000D01*
X14184000Y-8333200D01*
X14133200Y-8384000D01*
X14184000Y-8434800D01*
X14184000Y-8688800D02*
X14234800Y-8638000D01*
X14184000Y-8587200D01*
X14133200Y-8638000D01*
X14184000Y-8688800D01*
X16470000Y-6910800D02*
X16520800Y-6860000D01*
X16470000Y-6809200D01*
X16419200Y-6860000D01*
X16470000Y-6910800D01*
X16470000Y-7164800D02*
X16520800Y-7114000D01*
X16470000Y-7063200D01*
X16419200Y-7114000D01*
X16470000Y-7164800D01*
X16470000Y-7418800D02*
X16520800Y-7368000D01*
X16470000Y-7317200D01*
X16419200Y-7368000D01*
X16470000Y-7418800D01*
X16470000Y-7672800D02*
X16520800Y-7622000D01*
X16470000Y-7571200D01*
X16419200Y-7622000D01*
X16470000Y-7672800D01*
X16470000Y-7926800D02*
X16520800Y-7876000D01*
X16470000Y-7825200D01*
X16419200Y-7876000D01*
X16470000Y-7926800D01*
X16470000Y-8180800D02*
X16520800Y-8130000D01*
X16470000Y-8079200D01*
X16419200Y-8130000D01*
X16470000Y-8180800D01*
X16470000Y-8434800D02*
X16520800Y-8384000D01*
X16470000Y-8333200D01*
X16419200Y-8384000D01*
X16470000Y-8434800D01*
X16470000Y-8688800D02*
X16520800Y-8638000D01*
X16470000Y-8587200D01*
X16419200Y-8638000D01*
X16470000Y-8688800D01*
X17734000Y-5640800D02*
X17784800Y-5590000D01*
X17734000Y-5539200D01*
X17683200Y-5590000D01*
X17734000Y-5640800D01*
X17734000Y-5894800D02*
X17784800Y-5844000D01*
X17734000Y-5793200D01*
X17683200Y-5844000D01*
X17734000Y-5894800D01*
X17734000Y-6148800D02*
X17784800Y-6098000D01*
X17734000Y-6047200D01*
X17683200Y-6098000D01*
X17734000Y-6148800D01*
X17734000Y-6402800D02*
X17784800Y-6352000D01*
X17734000Y-6301200D01*
X17683200Y-6352000D01*
X17734000Y-6402800D01*
X11124000Y-5298000D02*
X11244000Y-5418000D01*
X11244000Y-5298000D02*
X11124000Y-5418000D01*
X11244000Y-5358000D02*
G75*
G03X11244000Y-5358000I-60000J0D01*
G01*
X11632000Y-5298000D02*
X11752000Y-5418000D01*
X11752000Y-5298000D02*
X11632000Y-5418000D01*
X11752000Y-5358000D02*
G75*
G03X11752000Y-5358000I-60000J0D01*
G01*
X13216000Y-5298000D02*
X13336000Y-5418000D01*
X13336000Y-5298000D02*
X13216000Y-5418000D01*
X13336000Y-5358000D02*
G75*
G03X13336000Y-5358000I-60000J0D01*
G01*
X13724000Y-5298000D02*
X13844000Y-5418000D01*
X13844000Y-5298000D02*
X13724000Y-5418000D01*
X13844000Y-5358000D02*
G75*
G03X13844000Y-5358000I-60000J0D01*
G01*
X15314000Y-5298000D02*
X15434000Y-5418000D01*
X15434000Y-5298000D02*
X15314000Y-5418000D01*
X15434000Y-5358000D02*
G75*
G03X15434000Y-5358000I-60000J0D01*
G01*
X15822000Y-5298000D02*
X15942000Y-5418000D01*
X15942000Y-5298000D02*
X15822000Y-5418000D01*
X15942000Y-5358000D02*
G75*
G03X15942000Y-5358000I-60000J0D01*
G01*
X16330000Y-5298000D02*
X16450000Y-5418000D01*
X16450000Y-5298000D02*
X16330000Y-5418000D01*
X16450000Y-5358000D02*
G75*
G03X16450000Y-5358000I-60000J0D01*
G01*
X18214000Y-8348000D02*
X18434000Y-8568000D01*
X18434000Y-8348000D02*
X18214000Y-8568000D01*
X18324000Y-8348000D02*
X18324000Y-8568000D01*
X18214000Y-8458000D02*
X18434000Y-8458000D01*
X19334000Y-8348000D02*
X19554000Y-8568000D01*
X19554000Y-8348000D02*
X19334000Y-8568000D01*
X19444000Y-8348000D02*
X19444000Y-8568000D01*
X19334000Y-8458000D02*
X19554000Y-8458000D01*
D13*
X8417329Y-10049014D02*
X8417329Y-9749014D01*
X8488757Y-9749014D01*
X8531614Y-9763300D01*
X8560186Y-9791872D01*
X8574471Y-9820443D01*
X8588757Y-9877586D01*
X8588757Y-9920443D01*
X8574471Y-9977586D01*
X8560186Y-10006157D01*
X8531614Y-10034729D01*
X8488757Y-10049014D01*
X8417329Y-10049014D01*
X8717329Y-10049014D02*
X8717329Y-9849014D01*
X8717329Y-9906157D02*
X8731614Y-9877586D01*
X8745900Y-9863300D01*
X8774471Y-9849014D01*
X8803043Y-9849014D01*
X8903043Y-10049014D02*
X8903043Y-9849014D01*
X8903043Y-9749014D02*
X8888757Y-9763300D01*
X8903043Y-9777586D01*
X8917329Y-9763300D01*
X8903043Y-9749014D01*
X8903043Y-9777586D01*
X9088757Y-10049014D02*
X9060186Y-10034729D01*
X9045900Y-10006157D01*
X9045900Y-9749014D01*
X9245900Y-10049014D02*
X9217329Y-10034729D01*
X9203043Y-10006157D01*
X9203043Y-9749014D01*
X9588757Y-10049014D02*
X9588757Y-9749014D01*
X9688757Y-9963300D01*
X9788757Y-9749014D01*
X9788757Y-10049014D01*
X10060186Y-10049014D02*
X10060186Y-9891872D01*
X10045900Y-9863300D01*
X10017329Y-9849014D01*
X9960186Y-9849014D01*
X9931614Y-9863300D01*
X10060186Y-10034729D02*
X10031614Y-10049014D01*
X9960186Y-10049014D01*
X9931614Y-10034729D01*
X9917329Y-10006157D01*
X9917329Y-9977586D01*
X9931614Y-9949014D01*
X9960186Y-9934729D01*
X10031614Y-9934729D01*
X10060186Y-9920443D01*
X10203043Y-9849014D02*
X10203043Y-10149014D01*
X10203043Y-9863300D02*
X10231614Y-9849014D01*
X10288757Y-9849014D01*
X10317329Y-9863300D01*
X10331614Y-9877586D01*
X10345900Y-9906157D01*
X10345900Y-9991872D01*
X10331614Y-10020443D01*
X10317329Y-10034729D01*
X10288757Y-10049014D01*
X10231614Y-10049014D01*
X10203043Y-10034729D01*
X10474471Y-10020443D02*
X10488757Y-10034729D01*
X10474471Y-10049014D01*
X10460186Y-10034729D01*
X10474471Y-10020443D01*
X10474471Y-10049014D01*
X10474471Y-9863300D02*
X10488757Y-9877586D01*
X10474471Y-9891872D01*
X10460186Y-9877586D01*
X10474471Y-9863300D01*
X10474471Y-9891872D01*
X8105900Y-10523300D02*
X8145900Y-10563300D01*
X8145900Y-10523300D02*
X8105900Y-10563300D01*
X8474471Y-10379014D02*
X8503043Y-10379014D01*
X8531614Y-10393300D01*
X8545900Y-10407586D01*
X8560186Y-10436157D01*
X8574471Y-10493300D01*
X8574471Y-10564729D01*
X8560186Y-10621872D01*
X8545900Y-10650443D01*
X8531614Y-10664729D01*
X8503043Y-10679014D01*
X8474471Y-10679014D01*
X8445900Y-10664729D01*
X8431614Y-10650443D01*
X8417329Y-10621872D01*
X8403043Y-10564729D01*
X8403043Y-10493300D01*
X8417329Y-10436157D01*
X8431614Y-10407586D01*
X8445900Y-10393300D01*
X8474471Y-10379014D01*
X8703043Y-10650443D02*
X8717329Y-10664729D01*
X8703043Y-10679014D01*
X8688757Y-10664729D01*
X8703043Y-10650443D01*
X8703043Y-10679014D01*
X8974471Y-10479014D02*
X8974471Y-10679014D01*
X8903043Y-10364729D02*
X8831614Y-10579014D01*
X9017328Y-10579014D01*
X9188757Y-10379014D02*
X9217329Y-10379014D01*
X9245900Y-10393300D01*
X9260186Y-10407586D01*
X9274471Y-10436157D01*
X9288757Y-10493300D01*
X9288757Y-10564729D01*
X9274471Y-10621872D01*
X9260186Y-10650443D01*
X9245900Y-10664729D01*
X9217329Y-10679014D01*
X9188757Y-10679014D01*
X9160186Y-10664729D01*
X9145900Y-10650443D01*
X9131614Y-10621872D01*
X9117329Y-10564729D01*
X9117329Y-10493300D01*
X9131614Y-10436157D01*
X9145900Y-10407586D01*
X9160186Y-10393300D01*
X9188757Y-10379014D01*
X9417329Y-10679014D02*
X9417329Y-10479014D01*
X9417329Y-10507586D02*
X9431614Y-10493300D01*
X9460186Y-10479014D01*
X9503043Y-10479014D01*
X9531614Y-10493300D01*
X9545900Y-10521872D01*
X9545900Y-10679014D01*
X9545900Y-10521872D02*
X9560186Y-10493300D01*
X9588757Y-10479014D01*
X9631614Y-10479014D01*
X9660186Y-10493300D01*
X9674471Y-10521872D01*
X9674471Y-10679014D01*
X9817329Y-10679014D02*
X9817329Y-10479014D01*
X9817329Y-10507586D02*
X9831614Y-10493300D01*
X9860186Y-10479014D01*
X9903043Y-10479014D01*
X9931614Y-10493300D01*
X9945900Y-10521872D01*
X9945900Y-10679014D01*
X9945900Y-10521872D02*
X9960186Y-10493300D01*
X9988757Y-10479014D01*
X10031614Y-10479014D01*
X10060186Y-10493300D01*
X10074471Y-10521872D01*
X10074471Y-10679014D01*
X10660186Y-10364729D02*
X10403043Y-10750443D01*
X11045900Y-10379014D02*
X11074471Y-10379014D01*
X11103043Y-10393300D01*
X11117328Y-10407586D01*
X11131614Y-10436157D01*
X11145900Y-10493300D01*
X11145900Y-10564729D01*
X11131614Y-10621872D01*
X11117328Y-10650443D01*
X11103043Y-10664729D01*
X11074471Y-10679014D01*
X11045900Y-10679014D01*
X11017328Y-10664729D01*
X11003043Y-10650443D01*
X10988757Y-10621872D01*
X10974471Y-10564729D01*
X10974471Y-10493300D01*
X10988757Y-10436157D01*
X11003043Y-10407586D01*
X11017328Y-10393300D01*
X11045900Y-10379014D01*
X11274471Y-10650443D02*
X11288757Y-10664729D01*
X11274471Y-10679014D01*
X11260186Y-10664729D01*
X11274471Y-10650443D01*
X11274471Y-10679014D01*
X11474471Y-10379014D02*
X11503043Y-10379014D01*
X11531614Y-10393300D01*
X11545900Y-10407586D01*
X11560185Y-10436157D01*
X11574471Y-10493300D01*
X11574471Y-10564729D01*
X11560185Y-10621872D01*
X11545900Y-10650443D01*
X11531614Y-10664729D01*
X11503043Y-10679014D01*
X11474471Y-10679014D01*
X11445900Y-10664729D01*
X11431614Y-10650443D01*
X11417328Y-10621872D01*
X11403043Y-10564729D01*
X11403043Y-10493300D01*
X11417328Y-10436157D01*
X11431614Y-10407586D01*
X11445900Y-10393300D01*
X11474471Y-10379014D01*
X11860185Y-10679014D02*
X11688757Y-10679014D01*
X11774471Y-10679014D02*
X11774471Y-10379014D01*
X11745900Y-10421872D01*
X11717328Y-10450443D01*
X11688757Y-10464729D01*
X12117328Y-10379014D02*
X12060185Y-10379014D01*
X12031614Y-10393300D01*
X12017328Y-10407586D01*
X11988757Y-10450443D01*
X11974471Y-10507586D01*
X11974471Y-10621872D01*
X11988757Y-10650443D01*
X12003043Y-10664729D01*
X12031614Y-10679014D01*
X12088757Y-10679014D01*
X12117328Y-10664729D01*
X12131614Y-10650443D01*
X12145900Y-10621872D01*
X12145900Y-10550443D01*
X12131614Y-10521872D01*
X12117328Y-10507586D01*
X12088757Y-10493300D01*
X12031614Y-10493300D01*
X12003043Y-10507586D01*
X11988757Y-10521872D01*
X11974471Y-10550443D01*
X12260186Y-10379014D02*
X12260186Y-10436157D01*
X12374471Y-10379014D02*
X12374471Y-10436157D01*
X12817328Y-10793300D02*
X12803043Y-10779014D01*
X12774471Y-10736157D01*
X12760185Y-10707586D01*
X12745900Y-10664729D01*
X12731614Y-10593300D01*
X12731614Y-10536157D01*
X12745900Y-10464729D01*
X12760185Y-10421872D01*
X12774471Y-10393300D01*
X12803043Y-10350443D01*
X12817328Y-10336157D01*
X12903043Y-10379014D02*
X13103043Y-10379014D01*
X12974471Y-10679014D01*
X13445900Y-10679014D02*
X13445900Y-10379014D01*
X13574471Y-10679014D02*
X13574471Y-10521872D01*
X13560185Y-10493300D01*
X13531614Y-10479014D01*
X13488757Y-10479014D01*
X13460185Y-10493300D01*
X13445900Y-10507586D01*
X13760185Y-10679014D02*
X13731614Y-10664729D01*
X13717328Y-10650443D01*
X13703043Y-10621872D01*
X13703043Y-10536157D01*
X13717328Y-10507586D01*
X13731614Y-10493300D01*
X13760185Y-10479014D01*
X13803043Y-10479014D01*
X13831614Y-10493300D01*
X13845900Y-10507586D01*
X13860185Y-10536157D01*
X13860185Y-10621872D01*
X13845900Y-10650443D01*
X13831614Y-10664729D01*
X13803043Y-10679014D01*
X13760185Y-10679014D01*
X14031614Y-10679014D02*
X14003043Y-10664729D01*
X13988757Y-10636157D01*
X13988757Y-10379014D01*
X14260186Y-10664729D02*
X14231614Y-10679014D01*
X14174471Y-10679014D01*
X14145900Y-10664729D01*
X14131614Y-10636157D01*
X14131614Y-10521872D01*
X14145900Y-10493300D01*
X14174471Y-10479014D01*
X14231614Y-10479014D01*
X14260186Y-10493300D01*
X14274471Y-10521872D01*
X14274471Y-10550443D01*
X14131614Y-10579014D01*
X14388757Y-10664729D02*
X14417328Y-10679014D01*
X14474471Y-10679014D01*
X14503043Y-10664729D01*
X14517328Y-10636157D01*
X14517328Y-10621872D01*
X14503043Y-10593300D01*
X14474471Y-10579014D01*
X14431614Y-10579014D01*
X14403043Y-10564729D01*
X14388757Y-10536157D01*
X14388757Y-10521872D01*
X14403043Y-10493300D01*
X14431614Y-10479014D01*
X14474471Y-10479014D01*
X14503043Y-10493300D01*
X14617328Y-10793300D02*
X14631614Y-10779014D01*
X14660186Y-10736157D01*
X14674471Y-10707586D01*
X14688757Y-10664729D01*
X14703043Y-10593300D01*
X14703043Y-10536157D01*
X14688757Y-10464729D01*
X14674471Y-10421872D01*
X14660186Y-10393300D01*
X14631614Y-10350443D01*
X14617328Y-10336157D01*
X8145900Y-10939300D02*
G75*
G03X8145900Y-10939300I-35000J0D01*
G01*
X8474471Y-10775014D02*
X8503043Y-10775014D01*
X8531614Y-10789300D01*
X8545900Y-10803586D01*
X8560186Y-10832157D01*
X8574471Y-10889300D01*
X8574471Y-10960729D01*
X8560186Y-11017872D01*
X8545900Y-11046443D01*
X8531614Y-11060729D01*
X8503043Y-11075014D01*
X8474471Y-11075014D01*
X8445900Y-11060729D01*
X8431614Y-11046443D01*
X8417329Y-11017872D01*
X8403043Y-10960729D01*
X8403043Y-10889300D01*
X8417329Y-10832157D01*
X8431614Y-10803586D01*
X8445900Y-10789300D01*
X8474471Y-10775014D01*
X8703043Y-11046443D02*
X8717329Y-11060729D01*
X8703043Y-11075014D01*
X8688757Y-11060729D01*
X8703043Y-11046443D01*
X8703043Y-11075014D01*
X8817328Y-10775014D02*
X9017328Y-10775014D01*
X8888757Y-11075014D01*
X9188757Y-10775014D02*
X9217329Y-10775014D01*
X9245900Y-10789300D01*
X9260186Y-10803586D01*
X9274471Y-10832157D01*
X9288757Y-10889300D01*
X9288757Y-10960729D01*
X9274471Y-11017872D01*
X9260186Y-11046443D01*
X9245900Y-11060729D01*
X9217329Y-11075014D01*
X9188757Y-11075014D01*
X9160186Y-11060729D01*
X9145900Y-11046443D01*
X9131614Y-11017872D01*
X9117329Y-10960729D01*
X9117329Y-10889300D01*
X9131614Y-10832157D01*
X9145900Y-10803586D01*
X9160186Y-10789300D01*
X9188757Y-10775014D01*
X9417329Y-11075014D02*
X9417329Y-10875014D01*
X9417329Y-10903586D02*
X9431614Y-10889300D01*
X9460186Y-10875014D01*
X9503043Y-10875014D01*
X9531614Y-10889300D01*
X9545900Y-10917872D01*
X9545900Y-11075014D01*
X9545900Y-10917872D02*
X9560186Y-10889300D01*
X9588757Y-10875014D01*
X9631614Y-10875014D01*
X9660186Y-10889300D01*
X9674471Y-10917872D01*
X9674471Y-11075014D01*
X9817329Y-11075014D02*
X9817329Y-10875014D01*
X9817329Y-10903586D02*
X9831614Y-10889300D01*
X9860186Y-10875014D01*
X9903043Y-10875014D01*
X9931614Y-10889300D01*
X9945900Y-10917872D01*
X9945900Y-11075014D01*
X9945900Y-10917872D02*
X9960186Y-10889300D01*
X9988757Y-10875014D01*
X10031614Y-10875014D01*
X10060186Y-10889300D01*
X10074471Y-10917872D01*
X10074471Y-11075014D01*
X10660186Y-10760729D02*
X10403043Y-11146443D01*
X11045900Y-10775014D02*
X11074471Y-10775014D01*
X11103043Y-10789300D01*
X11117328Y-10803586D01*
X11131614Y-10832157D01*
X11145900Y-10889300D01*
X11145900Y-10960729D01*
X11131614Y-11017872D01*
X11117328Y-11046443D01*
X11103043Y-11060729D01*
X11074471Y-11075014D01*
X11045900Y-11075014D01*
X11017328Y-11060729D01*
X11003043Y-11046443D01*
X10988757Y-11017872D01*
X10974471Y-10960729D01*
X10974471Y-10889300D01*
X10988757Y-10832157D01*
X11003043Y-10803586D01*
X11017328Y-10789300D01*
X11045900Y-10775014D01*
X11274471Y-11046443D02*
X11288757Y-11060729D01*
X11274471Y-11075014D01*
X11260186Y-11060729D01*
X11274471Y-11046443D01*
X11274471Y-11075014D01*
X11474471Y-10775014D02*
X11503043Y-10775014D01*
X11531614Y-10789300D01*
X11545900Y-10803586D01*
X11560185Y-10832157D01*
X11574471Y-10889300D01*
X11574471Y-10960729D01*
X11560185Y-11017872D01*
X11545900Y-11046443D01*
X11531614Y-11060729D01*
X11503043Y-11075014D01*
X11474471Y-11075014D01*
X11445900Y-11060729D01*
X11431614Y-11046443D01*
X11417328Y-11017872D01*
X11403043Y-10960729D01*
X11403043Y-10889300D01*
X11417328Y-10832157D01*
X11431614Y-10803586D01*
X11445900Y-10789300D01*
X11474471Y-10775014D01*
X11688757Y-10803586D02*
X11703043Y-10789300D01*
X11731614Y-10775014D01*
X11803043Y-10775014D01*
X11831614Y-10789300D01*
X11845900Y-10803586D01*
X11860185Y-10832157D01*
X11860185Y-10860729D01*
X11845900Y-10903586D01*
X11674471Y-11075014D01*
X11860185Y-11075014D01*
X12031614Y-10903586D02*
X12003043Y-10889300D01*
X11988757Y-10875014D01*
X11974471Y-10846443D01*
X11974471Y-10832157D01*
X11988757Y-10803586D01*
X12003043Y-10789300D01*
X12031614Y-10775014D01*
X12088757Y-10775014D01*
X12117328Y-10789300D01*
X12131614Y-10803586D01*
X12145900Y-10832157D01*
X12145900Y-10846443D01*
X12131614Y-10875014D01*
X12117328Y-10889300D01*
X12088757Y-10903586D01*
X12031614Y-10903586D01*
X12003043Y-10917872D01*
X11988757Y-10932157D01*
X11974471Y-10960729D01*
X11974471Y-11017872D01*
X11988757Y-11046443D01*
X12003043Y-11060729D01*
X12031614Y-11075014D01*
X12088757Y-11075014D01*
X12117328Y-11060729D01*
X12131614Y-11046443D01*
X12145900Y-11017872D01*
X12145900Y-10960729D01*
X12131614Y-10932157D01*
X12117328Y-10917872D01*
X12088757Y-10903586D01*
X12260186Y-10775014D02*
X12260186Y-10832157D01*
X12374471Y-10775014D02*
X12374471Y-10832157D01*
X12817328Y-11189300D02*
X12803043Y-11175014D01*
X12774471Y-11132157D01*
X12760185Y-11103586D01*
X12745900Y-11060729D01*
X12731614Y-10989300D01*
X12731614Y-10932157D01*
X12745900Y-10860729D01*
X12760185Y-10817872D01*
X12774471Y-10789300D01*
X12803043Y-10746443D01*
X12817328Y-10732157D01*
X12974471Y-10903586D02*
X12945900Y-10889300D01*
X12931614Y-10875014D01*
X12917328Y-10846443D01*
X12917328Y-10832157D01*
X12931614Y-10803586D01*
X12945900Y-10789300D01*
X12974471Y-10775014D01*
X13031614Y-10775014D01*
X13060185Y-10789300D01*
X13074471Y-10803586D01*
X13088757Y-10832157D01*
X13088757Y-10846443D01*
X13074471Y-10875014D01*
X13060185Y-10889300D01*
X13031614Y-10903586D01*
X12974471Y-10903586D01*
X12945900Y-10917872D01*
X12931614Y-10932157D01*
X12917328Y-10960729D01*
X12917328Y-11017872D01*
X12931614Y-11046443D01*
X12945900Y-11060729D01*
X12974471Y-11075014D01*
X13031614Y-11075014D01*
X13060185Y-11060729D01*
X13074471Y-11046443D01*
X13088757Y-11017872D01*
X13088757Y-10960729D01*
X13074471Y-10932157D01*
X13060185Y-10917872D01*
X13031614Y-10903586D01*
X13445900Y-11075014D02*
X13445900Y-10775014D01*
X13574471Y-11075014D02*
X13574471Y-10917872D01*
X13560185Y-10889300D01*
X13531614Y-10875014D01*
X13488757Y-10875014D01*
X13460185Y-10889300D01*
X13445900Y-10903586D01*
X13760185Y-11075014D02*
X13731614Y-11060729D01*
X13717328Y-11046443D01*
X13703043Y-11017872D01*
X13703043Y-10932157D01*
X13717328Y-10903586D01*
X13731614Y-10889300D01*
X13760185Y-10875014D01*
X13803043Y-10875014D01*
X13831614Y-10889300D01*
X13845900Y-10903586D01*
X13860185Y-10932157D01*
X13860185Y-11017872D01*
X13845900Y-11046443D01*
X13831614Y-11060729D01*
X13803043Y-11075014D01*
X13760185Y-11075014D01*
X14031614Y-11075014D02*
X14003043Y-11060729D01*
X13988757Y-11032157D01*
X13988757Y-10775014D01*
X14260186Y-11060729D02*
X14231614Y-11075014D01*
X14174471Y-11075014D01*
X14145900Y-11060729D01*
X14131614Y-11032157D01*
X14131614Y-10917872D01*
X14145900Y-10889300D01*
X14174471Y-10875014D01*
X14231614Y-10875014D01*
X14260186Y-10889300D01*
X14274471Y-10917872D01*
X14274471Y-10946443D01*
X14131614Y-10975014D01*
X14388757Y-11060729D02*
X14417328Y-11075014D01*
X14474471Y-11075014D01*
X14503043Y-11060729D01*
X14517328Y-11032157D01*
X14517328Y-11017872D01*
X14503043Y-10989300D01*
X14474471Y-10975014D01*
X14431614Y-10975014D01*
X14403043Y-10960729D01*
X14388757Y-10932157D01*
X14388757Y-10917872D01*
X14403043Y-10889300D01*
X14431614Y-10875014D01*
X14474471Y-10875014D01*
X14503043Y-10889300D01*
X14617328Y-11189300D02*
X14631614Y-11175014D01*
X14660186Y-11132157D01*
X14674471Y-11103586D01*
X14688757Y-11060729D01*
X14703043Y-10989300D01*
X14703043Y-10932157D01*
X14688757Y-10860729D01*
X14674471Y-10817872D01*
X14660186Y-10789300D01*
X14631614Y-10746443D01*
X14617328Y-10732157D01*
X8107800Y-11297200D02*
X8107800Y-11373400D01*
X8069700Y-11335300D02*
X8145900Y-11335300D01*
X8474471Y-11171014D02*
X8503043Y-11171014D01*
X8531614Y-11185300D01*
X8545900Y-11199586D01*
X8560186Y-11228157D01*
X8574471Y-11285300D01*
X8574471Y-11356729D01*
X8560186Y-11413871D01*
X8545900Y-11442443D01*
X8531614Y-11456729D01*
X8503043Y-11471014D01*
X8474471Y-11471014D01*
X8445900Y-11456729D01*
X8431614Y-11442443D01*
X8417329Y-11413871D01*
X8403043Y-11356729D01*
X8403043Y-11285300D01*
X8417329Y-11228157D01*
X8431614Y-11199586D01*
X8445900Y-11185300D01*
X8474471Y-11171014D01*
X8703043Y-11442443D02*
X8717329Y-11456729D01*
X8703043Y-11471014D01*
X8688757Y-11456729D01*
X8703043Y-11442443D01*
X8703043Y-11471014D01*
X8817328Y-11171014D02*
X9017328Y-11171014D01*
X8888757Y-11471014D01*
X9260186Y-11171014D02*
X9203043Y-11171014D01*
X9174471Y-11185300D01*
X9160186Y-11199586D01*
X9131614Y-11242443D01*
X9117329Y-11299586D01*
X9117329Y-11413871D01*
X9131614Y-11442443D01*
X9145900Y-11456729D01*
X9174471Y-11471014D01*
X9231614Y-11471014D01*
X9260186Y-11456729D01*
X9274471Y-11442443D01*
X9288757Y-11413871D01*
X9288757Y-11342443D01*
X9274471Y-11313871D01*
X9260186Y-11299586D01*
X9231614Y-11285300D01*
X9174471Y-11285300D01*
X9145900Y-11299586D01*
X9131614Y-11313871D01*
X9117329Y-11342443D01*
X9417329Y-11471014D02*
X9417329Y-11271014D01*
X9417329Y-11299586D02*
X9431614Y-11285300D01*
X9460186Y-11271014D01*
X9503043Y-11271014D01*
X9531614Y-11285300D01*
X9545900Y-11313871D01*
X9545900Y-11471014D01*
X9545900Y-11313871D02*
X9560186Y-11285300D01*
X9588757Y-11271014D01*
X9631614Y-11271014D01*
X9660186Y-11285300D01*
X9674471Y-11313871D01*
X9674471Y-11471014D01*
X9817329Y-11471014D02*
X9817329Y-11271014D01*
X9817329Y-11299586D02*
X9831614Y-11285300D01*
X9860186Y-11271014D01*
X9903043Y-11271014D01*
X9931614Y-11285300D01*
X9945900Y-11313871D01*
X9945900Y-11471014D01*
X9945900Y-11313871D02*
X9960186Y-11285300D01*
X9988757Y-11271014D01*
X10031614Y-11271014D01*
X10060186Y-11285300D01*
X10074471Y-11313871D01*
X10074471Y-11471014D01*
X10660186Y-11156729D02*
X10403043Y-11542443D01*
X11045900Y-11171014D02*
X11074471Y-11171014D01*
X11103043Y-11185300D01*
X11117328Y-11199586D01*
X11131614Y-11228157D01*
X11145900Y-11285300D01*
X11145900Y-11356729D01*
X11131614Y-11413871D01*
X11117328Y-11442443D01*
X11103043Y-11456729D01*
X11074471Y-11471014D01*
X11045900Y-11471014D01*
X11017328Y-11456729D01*
X11003043Y-11442443D01*
X10988757Y-11413871D01*
X10974471Y-11356729D01*
X10974471Y-11285300D01*
X10988757Y-11228157D01*
X11003043Y-11199586D01*
X11017328Y-11185300D01*
X11045900Y-11171014D01*
X11274471Y-11442443D02*
X11288757Y-11456729D01*
X11274471Y-11471014D01*
X11260186Y-11456729D01*
X11274471Y-11442443D01*
X11274471Y-11471014D01*
X11474471Y-11171014D02*
X11503043Y-11171014D01*
X11531614Y-11185300D01*
X11545900Y-11199586D01*
X11560185Y-11228157D01*
X11574471Y-11285300D01*
X11574471Y-11356729D01*
X11560185Y-11413871D01*
X11545900Y-11442443D01*
X11531614Y-11456729D01*
X11503043Y-11471014D01*
X11474471Y-11471014D01*
X11445900Y-11456729D01*
X11431614Y-11442443D01*
X11417328Y-11413871D01*
X11403043Y-11356729D01*
X11403043Y-11285300D01*
X11417328Y-11228157D01*
X11431614Y-11199586D01*
X11445900Y-11185300D01*
X11474471Y-11171014D01*
X11674471Y-11171014D02*
X11860185Y-11171014D01*
X11760185Y-11285300D01*
X11803043Y-11285300D01*
X11831614Y-11299586D01*
X11845900Y-11313871D01*
X11860185Y-11342443D01*
X11860185Y-11413871D01*
X11845900Y-11442443D01*
X11831614Y-11456729D01*
X11803043Y-11471014D01*
X11717328Y-11471014D01*
X11688757Y-11456729D01*
X11674471Y-11442443D01*
X12045900Y-11171014D02*
X12074471Y-11171014D01*
X12103043Y-11185300D01*
X12117328Y-11199586D01*
X12131614Y-11228157D01*
X12145900Y-11285300D01*
X12145900Y-11356729D01*
X12131614Y-11413871D01*
X12117328Y-11442443D01*
X12103043Y-11456729D01*
X12074471Y-11471014D01*
X12045900Y-11471014D01*
X12017328Y-11456729D01*
X12003043Y-11442443D01*
X11988757Y-11413871D01*
X11974471Y-11356729D01*
X11974471Y-11285300D01*
X11988757Y-11228157D01*
X12003043Y-11199586D01*
X12017328Y-11185300D01*
X12045900Y-11171014D01*
X12260186Y-11171014D02*
X12260186Y-11228157D01*
X12374471Y-11171014D02*
X12374471Y-11228157D01*
X12817328Y-11585300D02*
X12803043Y-11571014D01*
X12774471Y-11528157D01*
X12760185Y-11499586D01*
X12745900Y-11456729D01*
X12731614Y-11385300D01*
X12731614Y-11328157D01*
X12745900Y-11256729D01*
X12760185Y-11213871D01*
X12774471Y-11185300D01*
X12803043Y-11142443D01*
X12817328Y-11128157D01*
X13088757Y-11471014D02*
X12917328Y-11471014D01*
X13003043Y-11471014D02*
X13003043Y-11171014D01*
X12974471Y-11213871D01*
X12945900Y-11242443D01*
X12917328Y-11256729D01*
X13345900Y-11271014D02*
X13345900Y-11471014D01*
X13274471Y-11156729D02*
X13203043Y-11371014D01*
X13388757Y-11371014D01*
X13731614Y-11471014D02*
X13731614Y-11171014D01*
X13860185Y-11471014D02*
X13860185Y-11313871D01*
X13845900Y-11285300D01*
X13817328Y-11271014D01*
X13774471Y-11271014D01*
X13745900Y-11285300D01*
X13731614Y-11299586D01*
X14045900Y-11471014D02*
X14017328Y-11456729D01*
X14003043Y-11442443D01*
X13988757Y-11413871D01*
X13988757Y-11328157D01*
X14003043Y-11299586D01*
X14017328Y-11285300D01*
X14045900Y-11271014D01*
X14088757Y-11271014D01*
X14117328Y-11285300D01*
X14131614Y-11299586D01*
X14145900Y-11328157D01*
X14145900Y-11413871D01*
X14131614Y-11442443D01*
X14117328Y-11456729D01*
X14088757Y-11471014D01*
X14045900Y-11471014D01*
X14317328Y-11471014D02*
X14288757Y-11456729D01*
X14274471Y-11428157D01*
X14274471Y-11171014D01*
X14545900Y-11456729D02*
X14517328Y-11471014D01*
X14460186Y-11471014D01*
X14431614Y-11456729D01*
X14417328Y-11428157D01*
X14417328Y-11313871D01*
X14431614Y-11285300D01*
X14460186Y-11271014D01*
X14517328Y-11271014D01*
X14545900Y-11285300D01*
X14560186Y-11313871D01*
X14560186Y-11342443D01*
X14417328Y-11371014D01*
X14674471Y-11456729D02*
X14703043Y-11471014D01*
X14760186Y-11471014D01*
X14788757Y-11456729D01*
X14803043Y-11428157D01*
X14803043Y-11413871D01*
X14788757Y-11385300D01*
X14760186Y-11371014D01*
X14717328Y-11371014D01*
X14688757Y-11356729D01*
X14674471Y-11328157D01*
X14674471Y-11313871D01*
X14688757Y-11285300D01*
X14717328Y-11271014D01*
X14760186Y-11271014D01*
X14788757Y-11285300D01*
X14903043Y-11585300D02*
X14917328Y-11571014D01*
X14945900Y-11528157D01*
X14960186Y-11499586D01*
X14974471Y-11456729D01*
X14988757Y-11385300D01*
X14988757Y-11328157D01*
X14974471Y-11256729D01*
X14960186Y-11213871D01*
X14945900Y-11185300D01*
X14917328Y-11142443D01*
X14903043Y-11128157D01*
X8131256Y-11766656D02*
X8131256Y-11695944D01*
X8060544Y-11695944D01*
X8060544Y-11766656D01*
X8131256Y-11766656D01*
X8574471Y-11867014D02*
X8403043Y-11867014D01*
X8488757Y-11867014D02*
X8488757Y-11567014D01*
X8460186Y-11609871D01*
X8431614Y-11638443D01*
X8403043Y-11652729D01*
X8703043Y-11838443D02*
X8717329Y-11852729D01*
X8703043Y-11867014D01*
X8688757Y-11852729D01*
X8703043Y-11838443D01*
X8703043Y-11867014D01*
X8903043Y-11567014D02*
X8931614Y-11567014D01*
X8960186Y-11581300D01*
X8974471Y-11595586D01*
X8988757Y-11624157D01*
X9003043Y-11681300D01*
X9003043Y-11752729D01*
X8988757Y-11809871D01*
X8974471Y-11838443D01*
X8960186Y-11852729D01*
X8931614Y-11867014D01*
X8903043Y-11867014D01*
X8874471Y-11852729D01*
X8860186Y-11838443D01*
X8845900Y-11809871D01*
X8831614Y-11752729D01*
X8831614Y-11681300D01*
X8845900Y-11624157D01*
X8860186Y-11595586D01*
X8874471Y-11581300D01*
X8903043Y-11567014D01*
X9188757Y-11567014D02*
X9217329Y-11567014D01*
X9245900Y-11581300D01*
X9260186Y-11595586D01*
X9274471Y-11624157D01*
X9288757Y-11681300D01*
X9288757Y-11752729D01*
X9274471Y-11809871D01*
X9260186Y-11838443D01*
X9245900Y-11852729D01*
X9217329Y-11867014D01*
X9188757Y-11867014D01*
X9160186Y-11852729D01*
X9145900Y-11838443D01*
X9131614Y-11809871D01*
X9117329Y-11752729D01*
X9117329Y-11681300D01*
X9131614Y-11624157D01*
X9145900Y-11595586D01*
X9160186Y-11581300D01*
X9188757Y-11567014D01*
X9417329Y-11867014D02*
X9417329Y-11667014D01*
X9417329Y-11695586D02*
X9431614Y-11681300D01*
X9460186Y-11667014D01*
X9503043Y-11667014D01*
X9531614Y-11681300D01*
X9545900Y-11709871D01*
X9545900Y-11867014D01*
X9545900Y-11709871D02*
X9560186Y-11681300D01*
X9588757Y-11667014D01*
X9631614Y-11667014D01*
X9660186Y-11681300D01*
X9674471Y-11709871D01*
X9674471Y-11867014D01*
X9817329Y-11867014D02*
X9817329Y-11667014D01*
X9817329Y-11695586D02*
X9831614Y-11681300D01*
X9860186Y-11667014D01*
X9903043Y-11667014D01*
X9931614Y-11681300D01*
X9945900Y-11709871D01*
X9945900Y-11867014D01*
X9945900Y-11709871D02*
X9960186Y-11681300D01*
X9988757Y-11667014D01*
X10031614Y-11667014D01*
X10060186Y-11681300D01*
X10074471Y-11709871D01*
X10074471Y-11867014D01*
X10660186Y-11552729D02*
X10403043Y-11938443D01*
X11045900Y-11567014D02*
X11074471Y-11567014D01*
X11103043Y-11581300D01*
X11117328Y-11595586D01*
X11131614Y-11624157D01*
X11145900Y-11681300D01*
X11145900Y-11752729D01*
X11131614Y-11809871D01*
X11117328Y-11838443D01*
X11103043Y-11852729D01*
X11074471Y-11867014D01*
X11045900Y-11867014D01*
X11017328Y-11852729D01*
X11003043Y-11838443D01*
X10988757Y-11809871D01*
X10974471Y-11752729D01*
X10974471Y-11681300D01*
X10988757Y-11624157D01*
X11003043Y-11595586D01*
X11017328Y-11581300D01*
X11045900Y-11567014D01*
X11274471Y-11838443D02*
X11288757Y-11852729D01*
X11274471Y-11867014D01*
X11260186Y-11852729D01*
X11274471Y-11838443D01*
X11274471Y-11867014D01*
X11474471Y-11567014D02*
X11503043Y-11567014D01*
X11531614Y-11581300D01*
X11545900Y-11595586D01*
X11560185Y-11624157D01*
X11574471Y-11681300D01*
X11574471Y-11752729D01*
X11560185Y-11809871D01*
X11545900Y-11838443D01*
X11531614Y-11852729D01*
X11503043Y-11867014D01*
X11474471Y-11867014D01*
X11445900Y-11852729D01*
X11431614Y-11838443D01*
X11417328Y-11809871D01*
X11403043Y-11752729D01*
X11403043Y-11681300D01*
X11417328Y-11624157D01*
X11431614Y-11595586D01*
X11445900Y-11581300D01*
X11474471Y-11567014D01*
X11674471Y-11567014D02*
X11860185Y-11567014D01*
X11760185Y-11681300D01*
X11803043Y-11681300D01*
X11831614Y-11695586D01*
X11845900Y-11709871D01*
X11860185Y-11738443D01*
X11860185Y-11809871D01*
X11845900Y-11838443D01*
X11831614Y-11852729D01*
X11803043Y-11867014D01*
X11717328Y-11867014D01*
X11688757Y-11852729D01*
X11674471Y-11838443D01*
X12003043Y-11867014D02*
X12060185Y-11867014D01*
X12088757Y-11852729D01*
X12103043Y-11838443D01*
X12131614Y-11795586D01*
X12145900Y-11738443D01*
X12145900Y-11624157D01*
X12131614Y-11595586D01*
X12117328Y-11581300D01*
X12088757Y-11567014D01*
X12031614Y-11567014D01*
X12003043Y-11581300D01*
X11988757Y-11595586D01*
X11974471Y-11624157D01*
X11974471Y-11695586D01*
X11988757Y-11724157D01*
X12003043Y-11738443D01*
X12031614Y-11752729D01*
X12088757Y-11752729D01*
X12117328Y-11738443D01*
X12131614Y-11724157D01*
X12145900Y-11695586D01*
X12260186Y-11567014D02*
X12260186Y-11624157D01*
X12374471Y-11567014D02*
X12374471Y-11624157D01*
X12817328Y-11981300D02*
X12803043Y-11967014D01*
X12774471Y-11924157D01*
X12760185Y-11895586D01*
X12745900Y-11852729D01*
X12731614Y-11781300D01*
X12731614Y-11724157D01*
X12745900Y-11652729D01*
X12760185Y-11609871D01*
X12774471Y-11581300D01*
X12803043Y-11538443D01*
X12817328Y-11524157D01*
X12945900Y-11867014D02*
X13003043Y-11867014D01*
X13031614Y-11852729D01*
X13045900Y-11838443D01*
X13074471Y-11795586D01*
X13088757Y-11738443D01*
X13088757Y-11624157D01*
X13074471Y-11595586D01*
X13060185Y-11581300D01*
X13031614Y-11567014D01*
X12974471Y-11567014D01*
X12945900Y-11581300D01*
X12931614Y-11595586D01*
X12917328Y-11624157D01*
X12917328Y-11695586D01*
X12931614Y-11724157D01*
X12945900Y-11738443D01*
X12974471Y-11752729D01*
X13031614Y-11752729D01*
X13060185Y-11738443D01*
X13074471Y-11724157D01*
X13088757Y-11695586D01*
X13445900Y-11867014D02*
X13445900Y-11567014D01*
X13574471Y-11867014D02*
X13574471Y-11709871D01*
X13560185Y-11681300D01*
X13531614Y-11667014D01*
X13488757Y-11667014D01*
X13460185Y-11681300D01*
X13445900Y-11695586D01*
X13760185Y-11867014D02*
X13731614Y-11852729D01*
X13717328Y-11838443D01*
X13703043Y-11809871D01*
X13703043Y-11724157D01*
X13717328Y-11695586D01*
X13731614Y-11681300D01*
X13760185Y-11667014D01*
X13803043Y-11667014D01*
X13831614Y-11681300D01*
X13845900Y-11695586D01*
X13860185Y-11724157D01*
X13860185Y-11809871D01*
X13845900Y-11838443D01*
X13831614Y-11852729D01*
X13803043Y-11867014D01*
X13760185Y-11867014D01*
X14031614Y-11867014D02*
X14003043Y-11852729D01*
X13988757Y-11824157D01*
X13988757Y-11567014D01*
X14260186Y-11852729D02*
X14231614Y-11867014D01*
X14174471Y-11867014D01*
X14145900Y-11852729D01*
X14131614Y-11824157D01*
X14131614Y-11709871D01*
X14145900Y-11681300D01*
X14174471Y-11667014D01*
X14231614Y-11667014D01*
X14260186Y-11681300D01*
X14274471Y-11709871D01*
X14274471Y-11738443D01*
X14131614Y-11767014D01*
X14388757Y-11852729D02*
X14417328Y-11867014D01*
X14474471Y-11867014D01*
X14503043Y-11852729D01*
X14517328Y-11824157D01*
X14517328Y-11809871D01*
X14503043Y-11781300D01*
X14474471Y-11767014D01*
X14431614Y-11767014D01*
X14403043Y-11752729D01*
X14388757Y-11724157D01*
X14388757Y-11709871D01*
X14403043Y-11681300D01*
X14431614Y-11667014D01*
X14474471Y-11667014D01*
X14503043Y-11681300D01*
X14617328Y-11981300D02*
X14631614Y-11967014D01*
X14660186Y-11924157D01*
X14674471Y-11895586D01*
X14688757Y-11852729D01*
X14703043Y-11781300D01*
X14703043Y-11724157D01*
X14688757Y-11652729D01*
X14674471Y-11609871D01*
X14660186Y-11581300D01*
X14631614Y-11538443D01*
X14617328Y-11524157D01*
X8095100Y-12178100D02*
X8145900Y-12127300D01*
X8095100Y-12076500D01*
X8044300Y-12127300D01*
X8095100Y-12178100D01*
X8574471Y-12263014D02*
X8403043Y-12263014D01*
X8488757Y-12263014D02*
X8488757Y-11963014D01*
X8460186Y-12005871D01*
X8431614Y-12034443D01*
X8403043Y-12048729D01*
X8703043Y-12234443D02*
X8717329Y-12248729D01*
X8703043Y-12263014D01*
X8688757Y-12248729D01*
X8703043Y-12234443D01*
X8703043Y-12263014D01*
X8903043Y-11963014D02*
X8931614Y-11963014D01*
X8960186Y-11977300D01*
X8974471Y-11991586D01*
X8988757Y-12020157D01*
X9003043Y-12077300D01*
X9003043Y-12148729D01*
X8988757Y-12205871D01*
X8974471Y-12234443D01*
X8960186Y-12248729D01*
X8931614Y-12263014D01*
X8903043Y-12263014D01*
X8874471Y-12248729D01*
X8860186Y-12234443D01*
X8845900Y-12205871D01*
X8831614Y-12148729D01*
X8831614Y-12077300D01*
X8845900Y-12020157D01*
X8860186Y-11991586D01*
X8874471Y-11977300D01*
X8903043Y-11963014D01*
X9117329Y-11991586D02*
X9131614Y-11977300D01*
X9160186Y-11963014D01*
X9231614Y-11963014D01*
X9260186Y-11977300D01*
X9274471Y-11991586D01*
X9288757Y-12020157D01*
X9288757Y-12048729D01*
X9274471Y-12091586D01*
X9103043Y-12263014D01*
X9288757Y-12263014D01*
X9417329Y-12263014D02*
X9417329Y-12063014D01*
X9417329Y-12091586D02*
X9431614Y-12077300D01*
X9460186Y-12063014D01*
X9503043Y-12063014D01*
X9531614Y-12077300D01*
X9545900Y-12105871D01*
X9545900Y-12263014D01*
X9545900Y-12105871D02*
X9560186Y-12077300D01*
X9588757Y-12063014D01*
X9631614Y-12063014D01*
X9660186Y-12077300D01*
X9674471Y-12105871D01*
X9674471Y-12263014D01*
X9817329Y-12263014D02*
X9817329Y-12063014D01*
X9817329Y-12091586D02*
X9831614Y-12077300D01*
X9860186Y-12063014D01*
X9903043Y-12063014D01*
X9931614Y-12077300D01*
X9945900Y-12105871D01*
X9945900Y-12263014D01*
X9945900Y-12105871D02*
X9960186Y-12077300D01*
X9988757Y-12063014D01*
X10031614Y-12063014D01*
X10060186Y-12077300D01*
X10074471Y-12105871D01*
X10074471Y-12263014D01*
X10660186Y-11948729D02*
X10403043Y-12334443D01*
X11045900Y-11963014D02*
X11074471Y-11963014D01*
X11103043Y-11977300D01*
X11117328Y-11991586D01*
X11131614Y-12020157D01*
X11145900Y-12077300D01*
X11145900Y-12148729D01*
X11131614Y-12205871D01*
X11117328Y-12234443D01*
X11103043Y-12248729D01*
X11074471Y-12263014D01*
X11045900Y-12263014D01*
X11017328Y-12248729D01*
X11003043Y-12234443D01*
X10988757Y-12205871D01*
X10974471Y-12148729D01*
X10974471Y-12077300D01*
X10988757Y-12020157D01*
X11003043Y-11991586D01*
X11017328Y-11977300D01*
X11045900Y-11963014D01*
X11274471Y-12234443D02*
X11288757Y-12248729D01*
X11274471Y-12263014D01*
X11260186Y-12248729D01*
X11274471Y-12234443D01*
X11274471Y-12263014D01*
X11474471Y-11963014D02*
X11503043Y-11963014D01*
X11531614Y-11977300D01*
X11545900Y-11991586D01*
X11560185Y-12020157D01*
X11574471Y-12077300D01*
X11574471Y-12148729D01*
X11560185Y-12205871D01*
X11545900Y-12234443D01*
X11531614Y-12248729D01*
X11503043Y-12263014D01*
X11474471Y-12263014D01*
X11445900Y-12248729D01*
X11431614Y-12234443D01*
X11417328Y-12205871D01*
X11403043Y-12148729D01*
X11403043Y-12077300D01*
X11417328Y-12020157D01*
X11431614Y-11991586D01*
X11445900Y-11977300D01*
X11474471Y-11963014D01*
X11831614Y-12063014D02*
X11831614Y-12263014D01*
X11760185Y-11948729D02*
X11688757Y-12163014D01*
X11874471Y-12163014D01*
X12045900Y-11963014D02*
X12074471Y-11963014D01*
X12103043Y-11977300D01*
X12117328Y-11991586D01*
X12131614Y-12020157D01*
X12145900Y-12077300D01*
X12145900Y-12148729D01*
X12131614Y-12205871D01*
X12117328Y-12234443D01*
X12103043Y-12248729D01*
X12074471Y-12263014D01*
X12045900Y-12263014D01*
X12017328Y-12248729D01*
X12003043Y-12234443D01*
X11988757Y-12205871D01*
X11974471Y-12148729D01*
X11974471Y-12077300D01*
X11988757Y-12020157D01*
X12003043Y-11991586D01*
X12017328Y-11977300D01*
X12045900Y-11963014D01*
X12260186Y-11963014D02*
X12260186Y-12020157D01*
X12374471Y-11963014D02*
X12374471Y-12020157D01*
X12817328Y-12377300D02*
X12803043Y-12363014D01*
X12774471Y-12320157D01*
X12760185Y-12291586D01*
X12745900Y-12248729D01*
X12731614Y-12177300D01*
X12731614Y-12120157D01*
X12745900Y-12048729D01*
X12760185Y-12005871D01*
X12774471Y-11977300D01*
X12803043Y-11934443D01*
X12817328Y-11920157D01*
X12917328Y-11991586D02*
X12931614Y-11977300D01*
X12960185Y-11963014D01*
X13031614Y-11963014D01*
X13060185Y-11977300D01*
X13074471Y-11991586D01*
X13088757Y-12020157D01*
X13088757Y-12048729D01*
X13074471Y-12091586D01*
X12903043Y-12263014D01*
X13088757Y-12263014D01*
X13274471Y-11963014D02*
X13303043Y-11963014D01*
X13331614Y-11977300D01*
X13345900Y-11991586D01*
X13360185Y-12020157D01*
X13374471Y-12077300D01*
X13374471Y-12148729D01*
X13360185Y-12205871D01*
X13345900Y-12234443D01*
X13331614Y-12248729D01*
X13303043Y-12263014D01*
X13274471Y-12263014D01*
X13245900Y-12248729D01*
X13231614Y-12234443D01*
X13217328Y-12205871D01*
X13203043Y-12148729D01*
X13203043Y-12077300D01*
X13217328Y-12020157D01*
X13231614Y-11991586D01*
X13245900Y-11977300D01*
X13274471Y-11963014D01*
X13731614Y-12263014D02*
X13731614Y-11963014D01*
X13860185Y-12263014D02*
X13860185Y-12105871D01*
X13845900Y-12077300D01*
X13817328Y-12063014D01*
X13774471Y-12063014D01*
X13745900Y-12077300D01*
X13731614Y-12091586D01*
X14045900Y-12263014D02*
X14017328Y-12248729D01*
X14003043Y-12234443D01*
X13988757Y-12205871D01*
X13988757Y-12120157D01*
X14003043Y-12091586D01*
X14017328Y-12077300D01*
X14045900Y-12063014D01*
X14088757Y-12063014D01*
X14117328Y-12077300D01*
X14131614Y-12091586D01*
X14145900Y-12120157D01*
X14145900Y-12205871D01*
X14131614Y-12234443D01*
X14117328Y-12248729D01*
X14088757Y-12263014D01*
X14045900Y-12263014D01*
X14317328Y-12263014D02*
X14288757Y-12248729D01*
X14274471Y-12220157D01*
X14274471Y-11963014D01*
X14545900Y-12248729D02*
X14517328Y-12263014D01*
X14460186Y-12263014D01*
X14431614Y-12248729D01*
X14417328Y-12220157D01*
X14417328Y-12105871D01*
X14431614Y-12077300D01*
X14460186Y-12063014D01*
X14517328Y-12063014D01*
X14545900Y-12077300D01*
X14560186Y-12105871D01*
X14560186Y-12134443D01*
X14417328Y-12163014D01*
X14674471Y-12248729D02*
X14703043Y-12263014D01*
X14760186Y-12263014D01*
X14788757Y-12248729D01*
X14803043Y-12220157D01*
X14803043Y-12205871D01*
X14788757Y-12177300D01*
X14760186Y-12163014D01*
X14717328Y-12163014D01*
X14688757Y-12148729D01*
X14674471Y-12120157D01*
X14674471Y-12105871D01*
X14688757Y-12077300D01*
X14717328Y-12063014D01*
X14760186Y-12063014D01*
X14788757Y-12077300D01*
X14903043Y-12377300D02*
X14917328Y-12363014D01*
X14945900Y-12320157D01*
X14960186Y-12291586D01*
X14974471Y-12248729D01*
X14988757Y-12177300D01*
X14988757Y-12120157D01*
X14974471Y-12048729D01*
X14960186Y-12005871D01*
X14945900Y-11977300D01*
X14917328Y-11934443D01*
X14903043Y-11920157D01*
X8025900Y-12463300D02*
X8145900Y-12583300D01*
X8145900Y-12463300D02*
X8025900Y-12583300D01*
X8145900Y-12523300D02*
G75*
G03X8145900Y-12523300I-60000J0D01*
G01*
X8574471Y-12659014D02*
X8403043Y-12659014D01*
X8488757Y-12659014D02*
X8488757Y-12359014D01*
X8460186Y-12401871D01*
X8431614Y-12430443D01*
X8403043Y-12444729D01*
X8703043Y-12630443D02*
X8717329Y-12644729D01*
X8703043Y-12659014D01*
X8688757Y-12644729D01*
X8703043Y-12630443D01*
X8703043Y-12659014D01*
X8831614Y-12387586D02*
X8845900Y-12373300D01*
X8874471Y-12359014D01*
X8945900Y-12359014D01*
X8974471Y-12373300D01*
X8988757Y-12387586D01*
X9003043Y-12416157D01*
X9003043Y-12444729D01*
X8988757Y-12487586D01*
X8817328Y-12659014D01*
X9003043Y-12659014D01*
X9188757Y-12359014D02*
X9217329Y-12359014D01*
X9245900Y-12373300D01*
X9260186Y-12387586D01*
X9274471Y-12416157D01*
X9288757Y-12473300D01*
X9288757Y-12544729D01*
X9274471Y-12601871D01*
X9260186Y-12630443D01*
X9245900Y-12644729D01*
X9217329Y-12659014D01*
X9188757Y-12659014D01*
X9160186Y-12644729D01*
X9145900Y-12630443D01*
X9131614Y-12601871D01*
X9117329Y-12544729D01*
X9117329Y-12473300D01*
X9131614Y-12416157D01*
X9145900Y-12387586D01*
X9160186Y-12373300D01*
X9188757Y-12359014D01*
X9417329Y-12659014D02*
X9417329Y-12459014D01*
X9417329Y-12487586D02*
X9431614Y-12473300D01*
X9460186Y-12459014D01*
X9503043Y-12459014D01*
X9531614Y-12473300D01*
X9545900Y-12501871D01*
X9545900Y-12659014D01*
X9545900Y-12501871D02*
X9560186Y-12473300D01*
X9588757Y-12459014D01*
X9631614Y-12459014D01*
X9660186Y-12473300D01*
X9674471Y-12501871D01*
X9674471Y-12659014D01*
X9817329Y-12659014D02*
X9817329Y-12459014D01*
X9817329Y-12487586D02*
X9831614Y-12473300D01*
X9860186Y-12459014D01*
X9903043Y-12459014D01*
X9931614Y-12473300D01*
X9945900Y-12501871D01*
X9945900Y-12659014D01*
X9945900Y-12501871D02*
X9960186Y-12473300D01*
X9988757Y-12459014D01*
X10031614Y-12459014D01*
X10060186Y-12473300D01*
X10074471Y-12501871D01*
X10074471Y-12659014D01*
X10660186Y-12344729D02*
X10403043Y-12730443D01*
X11045900Y-12359014D02*
X11074471Y-12359014D01*
X11103043Y-12373300D01*
X11117328Y-12387586D01*
X11131614Y-12416157D01*
X11145900Y-12473300D01*
X11145900Y-12544729D01*
X11131614Y-12601871D01*
X11117328Y-12630443D01*
X11103043Y-12644729D01*
X11074471Y-12659014D01*
X11045900Y-12659014D01*
X11017328Y-12644729D01*
X11003043Y-12630443D01*
X10988757Y-12601871D01*
X10974471Y-12544729D01*
X10974471Y-12473300D01*
X10988757Y-12416157D01*
X11003043Y-12387586D01*
X11017328Y-12373300D01*
X11045900Y-12359014D01*
X11274471Y-12630443D02*
X11288757Y-12644729D01*
X11274471Y-12659014D01*
X11260186Y-12644729D01*
X11274471Y-12630443D01*
X11274471Y-12659014D01*
X11474471Y-12359014D02*
X11503043Y-12359014D01*
X11531614Y-12373300D01*
X11545900Y-12387586D01*
X11560185Y-12416157D01*
X11574471Y-12473300D01*
X11574471Y-12544729D01*
X11560185Y-12601871D01*
X11545900Y-12630443D01*
X11531614Y-12644729D01*
X11503043Y-12659014D01*
X11474471Y-12659014D01*
X11445900Y-12644729D01*
X11431614Y-12630443D01*
X11417328Y-12601871D01*
X11403043Y-12544729D01*
X11403043Y-12473300D01*
X11417328Y-12416157D01*
X11431614Y-12387586D01*
X11445900Y-12373300D01*
X11474471Y-12359014D01*
X11831614Y-12459014D02*
X11831614Y-12659014D01*
X11760185Y-12344729D02*
X11688757Y-12559014D01*
X11874471Y-12559014D01*
X11960185Y-12359014D02*
X12160185Y-12359014D01*
X12031614Y-12659014D01*
X12260186Y-12359014D02*
X12260186Y-12416157D01*
X12374471Y-12359014D02*
X12374471Y-12416157D01*
X12817328Y-12773300D02*
X12803043Y-12759014D01*
X12774471Y-12716157D01*
X12760185Y-12687586D01*
X12745900Y-12644729D01*
X12731614Y-12573300D01*
X12731614Y-12516157D01*
X12745900Y-12444729D01*
X12760185Y-12401871D01*
X12774471Y-12373300D01*
X12803043Y-12330443D01*
X12817328Y-12316157D01*
X12903043Y-12359014D02*
X13103043Y-12359014D01*
X12974471Y-12659014D01*
X13445900Y-12659014D02*
X13445900Y-12359014D01*
X13574471Y-12659014D02*
X13574471Y-12501871D01*
X13560185Y-12473300D01*
X13531614Y-12459014D01*
X13488757Y-12459014D01*
X13460185Y-12473300D01*
X13445900Y-12487586D01*
X13760185Y-12659014D02*
X13731614Y-12644729D01*
X13717328Y-12630443D01*
X13703043Y-12601871D01*
X13703043Y-12516157D01*
X13717328Y-12487586D01*
X13731614Y-12473300D01*
X13760185Y-12459014D01*
X13803043Y-12459014D01*
X13831614Y-12473300D01*
X13845900Y-12487586D01*
X13860185Y-12516157D01*
X13860185Y-12601871D01*
X13845900Y-12630443D01*
X13831614Y-12644729D01*
X13803043Y-12659014D01*
X13760185Y-12659014D01*
X14031614Y-12659014D02*
X14003043Y-12644729D01*
X13988757Y-12616157D01*
X13988757Y-12359014D01*
X14260186Y-12644729D02*
X14231614Y-12659014D01*
X14174471Y-12659014D01*
X14145900Y-12644729D01*
X14131614Y-12616157D01*
X14131614Y-12501871D01*
X14145900Y-12473300D01*
X14174471Y-12459014D01*
X14231614Y-12459014D01*
X14260186Y-12473300D01*
X14274471Y-12501871D01*
X14274471Y-12530443D01*
X14131614Y-12559014D01*
X14388757Y-12644729D02*
X14417328Y-12659014D01*
X14474471Y-12659014D01*
X14503043Y-12644729D01*
X14517328Y-12616157D01*
X14517328Y-12601871D01*
X14503043Y-12573300D01*
X14474471Y-12559014D01*
X14431614Y-12559014D01*
X14403043Y-12544729D01*
X14388757Y-12516157D01*
X14388757Y-12501871D01*
X14403043Y-12473300D01*
X14431614Y-12459014D01*
X14474471Y-12459014D01*
X14503043Y-12473300D01*
X14617328Y-12773300D02*
X14631614Y-12759014D01*
X14660186Y-12716157D01*
X14674471Y-12687586D01*
X14688757Y-12644729D01*
X14703043Y-12573300D01*
X14703043Y-12516157D01*
X14688757Y-12444729D01*
X14674471Y-12401871D01*
X14660186Y-12373300D01*
X14631614Y-12330443D01*
X14617328Y-12316157D01*
X7925900Y-12809300D02*
X8145900Y-13029300D01*
X8145900Y-12809300D02*
X7925900Y-13029300D01*
X8035900Y-12809300D02*
X8035900Y-13029300D01*
X7925900Y-12919300D02*
X8145900Y-12919300D01*
X8403043Y-12783586D02*
X8417329Y-12769300D01*
X8445900Y-12755014D01*
X8517329Y-12755014D01*
X8545900Y-12769300D01*
X8560186Y-12783586D01*
X8574471Y-12812157D01*
X8574471Y-12840729D01*
X8560186Y-12883586D01*
X8388757Y-13055014D01*
X8574471Y-13055014D01*
X8703043Y-13026443D02*
X8717329Y-13040729D01*
X8703043Y-13055014D01*
X8688757Y-13040729D01*
X8703043Y-13026443D01*
X8703043Y-13055014D01*
X8831614Y-12783586D02*
X8845900Y-12769300D01*
X8874471Y-12755014D01*
X8945900Y-12755014D01*
X8974471Y-12769300D01*
X8988757Y-12783586D01*
X9003043Y-12812157D01*
X9003043Y-12840729D01*
X8988757Y-12883586D01*
X8817328Y-13055014D01*
X9003043Y-13055014D01*
X9188757Y-12755014D02*
X9217329Y-12755014D01*
X9245900Y-12769300D01*
X9260186Y-12783586D01*
X9274471Y-12812157D01*
X9288757Y-12869300D01*
X9288757Y-12940729D01*
X9274471Y-12997871D01*
X9260186Y-13026443D01*
X9245900Y-13040729D01*
X9217329Y-13055014D01*
X9188757Y-13055014D01*
X9160186Y-13040729D01*
X9145900Y-13026443D01*
X9131614Y-12997871D01*
X9117329Y-12940729D01*
X9117329Y-12869300D01*
X9131614Y-12812157D01*
X9145900Y-12783586D01*
X9160186Y-12769300D01*
X9188757Y-12755014D01*
X9417329Y-13055014D02*
X9417329Y-12855014D01*
X9417329Y-12883586D02*
X9431614Y-12869300D01*
X9460186Y-12855014D01*
X9503043Y-12855014D01*
X9531614Y-12869300D01*
X9545900Y-12897871D01*
X9545900Y-13055014D01*
X9545900Y-12897871D02*
X9560186Y-12869300D01*
X9588757Y-12855014D01*
X9631614Y-12855014D01*
X9660186Y-12869300D01*
X9674471Y-12897871D01*
X9674471Y-13055014D01*
X9817329Y-13055014D02*
X9817329Y-12855014D01*
X9817329Y-12883586D02*
X9831614Y-12869300D01*
X9860186Y-12855014D01*
X9903043Y-12855014D01*
X9931614Y-12869300D01*
X9945900Y-12897871D01*
X9945900Y-13055014D01*
X9945900Y-12897871D02*
X9960186Y-12869300D01*
X9988757Y-12855014D01*
X10031614Y-12855014D01*
X10060186Y-12869300D01*
X10074471Y-12897871D01*
X10074471Y-13055014D01*
X10660186Y-12740729D02*
X10403043Y-13126443D01*
X11045900Y-12755014D02*
X11074471Y-12755014D01*
X11103043Y-12769300D01*
X11117328Y-12783586D01*
X11131614Y-12812157D01*
X11145900Y-12869300D01*
X11145900Y-12940729D01*
X11131614Y-12997871D01*
X11117328Y-13026443D01*
X11103043Y-13040729D01*
X11074471Y-13055014D01*
X11045900Y-13055014D01*
X11017328Y-13040729D01*
X11003043Y-13026443D01*
X10988757Y-12997871D01*
X10974471Y-12940729D01*
X10974471Y-12869300D01*
X10988757Y-12812157D01*
X11003043Y-12783586D01*
X11017328Y-12769300D01*
X11045900Y-12755014D01*
X11274471Y-13026443D02*
X11288757Y-13040729D01*
X11274471Y-13055014D01*
X11260186Y-13040729D01*
X11274471Y-13026443D01*
X11274471Y-13055014D01*
X11474471Y-12755014D02*
X11503043Y-12755014D01*
X11531614Y-12769300D01*
X11545900Y-12783586D01*
X11560185Y-12812157D01*
X11574471Y-12869300D01*
X11574471Y-12940729D01*
X11560185Y-12997871D01*
X11545900Y-13026443D01*
X11531614Y-13040729D01*
X11503043Y-13055014D01*
X11474471Y-13055014D01*
X11445900Y-13040729D01*
X11431614Y-13026443D01*
X11417328Y-12997871D01*
X11403043Y-12940729D01*
X11403043Y-12869300D01*
X11417328Y-12812157D01*
X11431614Y-12783586D01*
X11445900Y-12769300D01*
X11474471Y-12755014D01*
X11745900Y-12883586D02*
X11717328Y-12869300D01*
X11703043Y-12855014D01*
X11688757Y-12826443D01*
X11688757Y-12812157D01*
X11703043Y-12783586D01*
X11717328Y-12769300D01*
X11745900Y-12755014D01*
X11803043Y-12755014D01*
X11831614Y-12769300D01*
X11845900Y-12783586D01*
X11860185Y-12812157D01*
X11860185Y-12826443D01*
X11845900Y-12855014D01*
X11831614Y-12869300D01*
X11803043Y-12883586D01*
X11745900Y-12883586D01*
X11717328Y-12897871D01*
X11703043Y-12912157D01*
X11688757Y-12940729D01*
X11688757Y-12997871D01*
X11703043Y-13026443D01*
X11717328Y-13040729D01*
X11745900Y-13055014D01*
X11803043Y-13055014D01*
X11831614Y-13040729D01*
X11845900Y-13026443D01*
X11860185Y-12997871D01*
X11860185Y-12940729D01*
X11845900Y-12912157D01*
X11831614Y-12897871D01*
X11803043Y-12883586D01*
X11960185Y-12755014D02*
X12160185Y-12755014D01*
X12031614Y-13055014D01*
X12260186Y-12755014D02*
X12260186Y-12812157D01*
X12374471Y-12755014D02*
X12374471Y-12812157D01*
X12817328Y-13169300D02*
X12803043Y-13155014D01*
X12774471Y-13112157D01*
X12760185Y-13083586D01*
X12745900Y-13040729D01*
X12731614Y-12969300D01*
X12731614Y-12912157D01*
X12745900Y-12840729D01*
X12760185Y-12797871D01*
X12774471Y-12769300D01*
X12803043Y-12726443D01*
X12817328Y-12712157D01*
X12917328Y-12783586D02*
X12931614Y-12769300D01*
X12960185Y-12755014D01*
X13031614Y-12755014D01*
X13060185Y-12769300D01*
X13074471Y-12783586D01*
X13088757Y-12812157D01*
X13088757Y-12840729D01*
X13074471Y-12883586D01*
X12903043Y-13055014D01*
X13088757Y-13055014D01*
X13445900Y-13055014D02*
X13445900Y-12755014D01*
X13574471Y-13055014D02*
X13574471Y-12897871D01*
X13560185Y-12869300D01*
X13531614Y-12855014D01*
X13488757Y-12855014D01*
X13460185Y-12869300D01*
X13445900Y-12883586D01*
X13760185Y-13055014D02*
X13731614Y-13040729D01*
X13717328Y-13026443D01*
X13703043Y-12997871D01*
X13703043Y-12912157D01*
X13717328Y-12883586D01*
X13731614Y-12869300D01*
X13760185Y-12855014D01*
X13803043Y-12855014D01*
X13831614Y-12869300D01*
X13845900Y-12883586D01*
X13860185Y-12912157D01*
X13860185Y-12997871D01*
X13845900Y-13026443D01*
X13831614Y-13040729D01*
X13803043Y-13055014D01*
X13760185Y-13055014D01*
X14031614Y-13055014D02*
X14003043Y-13040729D01*
X13988757Y-13012157D01*
X13988757Y-12755014D01*
X14260186Y-13040729D02*
X14231614Y-13055014D01*
X14174471Y-13055014D01*
X14145900Y-13040729D01*
X14131614Y-13012157D01*
X14131614Y-12897871D01*
X14145900Y-12869300D01*
X14174471Y-12855014D01*
X14231614Y-12855014D01*
X14260186Y-12869300D01*
X14274471Y-12897871D01*
X14274471Y-12926443D01*
X14131614Y-12955014D01*
X14388757Y-13040729D02*
X14417328Y-13055014D01*
X14474471Y-13055014D01*
X14503043Y-13040729D01*
X14517328Y-13012157D01*
X14517328Y-12997871D01*
X14503043Y-12969300D01*
X14474471Y-12955014D01*
X14431614Y-12955014D01*
X14403043Y-12940729D01*
X14388757Y-12912157D01*
X14388757Y-12897871D01*
X14403043Y-12869300D01*
X14431614Y-12855014D01*
X14474471Y-12855014D01*
X14503043Y-12869300D01*
X14617328Y-13169300D02*
X14631614Y-13155014D01*
X14660186Y-13112157D01*
X14674471Y-13083586D01*
X14688757Y-13040729D01*
X14703043Y-12969300D01*
X14703043Y-12912157D01*
X14688757Y-12840729D01*
X14674471Y-12797871D01*
X14660186Y-12769300D01*
X14631614Y-12726443D01*
X14617328Y-12712157D01*
M02*
