M48
;DRILL file {KiCad 4.0.7} date 06/30/19 19:59:08
;FORMAT={-:-/ absolute / metric / decimal}
FMAT,2
METRIC,TZ
T1C0.400
T2C0.700
T3C0.762
T4C1.000
T5C1.016
T6C1.200
T7C2.200
%
G90
G05
M71
T1
X129.443Y-65.111
X132.043Y-61.953
X133.75Y-85.599
X143.402Y-66.424
X148.482Y-82.498
X149.508Y-67.269
X150.514Y-83.536
T2
X107.44Y-89.31
X107.45Y-81.68
X112.52Y-89.31
X112.54Y-81.68
X117.61Y-81.68
X117.61Y-89.3
X125.23Y-81.68
X125.23Y-89.3
T3
X95.09Y-53.88
X95.09Y-56.42
X95.09Y-58.96
X95.09Y-61.5
X95.09Y-64.04
X95.09Y-66.58
X95.09Y-69.12
X95.09Y-71.66
X95.09Y-74.2
X95.09Y-76.74
X95.09Y-79.28
X95.09Y-81.82
X95.09Y-84.36
X95.09Y-86.9
T4
X107.818Y-63.592
X107.818Y-69.132
X134.908Y-60.497
X134.908Y-64.817
X186.34Y-77.58
X186.34Y-92.08
X188.84Y-92.08
X191.34Y-77.58
X191.34Y-92.08
T5
X141.84Y-68.6
X141.84Y-71.14
X141.84Y-73.68
X141.84Y-76.22
X141.84Y-78.76
X141.84Y-81.3
X141.84Y-83.84
X141.84Y-86.38
X164.7Y-68.6
X164.7Y-71.14
X164.7Y-73.68
X164.7Y-76.22
X164.7Y-78.76
X164.7Y-81.3
X164.7Y-83.84
X164.7Y-86.38
X177.34Y-55.9
X177.34Y-58.44
X177.34Y-60.98
X177.34Y-63.52
T6
X111.84Y-53.58
X116.92Y-53.58
X132.76Y-53.58
X137.84Y-53.58
X153.74Y-53.58
X158.82Y-53.58
X163.9Y-53.58
T7
X183.24Y-84.58
X194.44Y-84.58
T0
M30
