G04 #@! TF.FileFunction,Copper,L2,Bot,Signal*
%FSLAX46Y46*%
G04 Gerber Fmt 4.6, Leading zero omitted, Abs format (unit mm)*
G04 Created by KiCad (PCBNEW 4.0.7) date 06/30/19 20:04:18*
%MOMM*%
%LPD*%
G01*
G04 APERTURE LIST*
%ADD10C,0.100000*%
%ADD11R,2.032000X1.727200*%
%ADD12O,2.032000X1.727200*%
%ADD13C,1.800000*%
%ADD14C,1.524000*%
%ADD15R,1.800000X3.600000*%
%ADD16O,1.800000X3.600000*%
%ADD17R,1.400000X1.400000*%
%ADD18C,1.400000*%
%ADD19C,3.000000*%
%ADD20C,0.600000*%
%ADD21C,1.000000*%
%ADD22C,0.400000*%
%ADD23C,1.500000*%
G04 APERTURE END LIST*
D10*
D11*
X177340000Y-55900000D03*
D12*
X177340000Y-58440000D03*
X177340000Y-60980000D03*
X177340000Y-63520000D03*
D13*
X141840000Y-68600000D03*
X141840000Y-71140000D03*
X141840000Y-73680000D03*
X141840000Y-76220000D03*
X141840000Y-78760000D03*
X141840000Y-81300000D03*
X141840000Y-83840000D03*
X141840000Y-86380000D03*
X164700000Y-86380000D03*
X164700000Y-83840000D03*
X164700000Y-81300000D03*
X164700000Y-78760000D03*
X164700000Y-76220000D03*
X164700000Y-73680000D03*
X164700000Y-71140000D03*
X164700000Y-68600000D03*
D14*
X107818000Y-63592000D03*
X107818000Y-69132000D03*
X134908000Y-60497000D03*
X134908000Y-64817000D03*
D15*
X132760000Y-53580000D03*
D16*
X137840000Y-53580000D03*
D15*
X153740000Y-53580000D03*
D16*
X158820000Y-53580000D03*
X163900000Y-53580000D03*
D15*
X111840000Y-53580000D03*
D16*
X116920000Y-53580000D03*
D17*
X125230000Y-81680000D03*
D18*
X125230000Y-89300000D03*
X112540000Y-81680000D03*
X107450000Y-81680000D03*
X117610000Y-81680000D03*
X112520000Y-89310000D03*
X107440000Y-89310000D03*
X117610000Y-89300000D03*
D13*
X186340000Y-77580000D03*
X186340000Y-92080000D03*
X188840000Y-92080000D03*
X191340000Y-92080000D03*
X191340000Y-77580000D03*
D19*
X194440000Y-84580000D03*
X183240000Y-84580000D03*
D14*
X95090000Y-53880000D03*
X95090000Y-56420000D03*
X95090000Y-58960000D03*
X95090000Y-61500000D03*
X95090000Y-64040000D03*
X95090000Y-66580000D03*
X95090000Y-69120000D03*
X95090000Y-71660000D03*
X95090000Y-74200000D03*
X95090000Y-76740000D03*
X95090000Y-79280000D03*
X95090000Y-81820000D03*
X95090000Y-84360000D03*
X95090000Y-86900000D03*
D20*
X143401700Y-66424100D03*
X133750300Y-85599000D03*
X148482500Y-82498100D03*
X150514300Y-83536200D03*
X129443200Y-65111400D03*
X149507900Y-67268800D03*
X132043500Y-61952500D03*
D21*
X186340000Y-77580000D02*
X184515998Y-77580000D01*
X177340000Y-70404002D02*
X177340000Y-65383600D01*
X184515998Y-77580000D02*
X177340000Y-70404002D01*
X177340000Y-65383600D02*
X177340000Y-63520000D01*
X186340000Y-77580000D02*
X188840000Y-80080000D01*
X188840000Y-80080000D02*
X188840000Y-92080000D01*
X111840000Y-65110000D02*
X107818000Y-69132000D01*
X111840000Y-53580000D02*
X111840000Y-65110000D01*
X130690000Y-83840000D02*
X125230000Y-89300000D01*
X141840000Y-83840000D02*
X130690000Y-83840000D01*
D22*
X143401700Y-69578300D02*
X141840000Y-71140000D01*
X143401700Y-66424100D02*
X143401700Y-69578300D01*
X143194500Y-87786100D02*
X148482500Y-82498100D01*
X135937400Y-87786100D02*
X143194500Y-87786100D01*
X133750300Y-85599000D02*
X135937400Y-87786100D01*
D23*
X153740000Y-53580000D02*
X144725400Y-53580000D01*
X109400001Y-87592399D02*
X107682400Y-89310000D01*
X144725400Y-53580000D02*
X135648400Y-62657000D01*
X109400001Y-81933997D02*
X109400001Y-87592399D01*
X135648400Y-62657000D02*
X134167900Y-62657000D01*
X107682400Y-89310000D02*
X107440000Y-89310000D01*
X134167900Y-62657000D02*
X120544900Y-76280000D01*
X120544900Y-76280000D02*
X115053998Y-76280000D01*
X115053998Y-76280000D02*
X109400001Y-81933997D01*
X158820000Y-53580000D02*
X158236700Y-53580000D01*
X146005600Y-57729600D02*
X117610000Y-86125200D01*
X158236700Y-53580000D02*
X154087100Y-57729600D01*
X154087100Y-57729600D02*
X146005600Y-57729600D01*
X117610000Y-86125200D02*
X117610000Y-89300000D01*
X154571300Y-61877700D02*
X161240000Y-55209000D01*
X163900000Y-53580000D02*
X163900000Y-54480000D01*
X163900000Y-54480000D02*
X163171000Y-55209000D01*
X163171000Y-55209000D02*
X161240000Y-55209000D01*
X145509400Y-61877700D02*
X154571300Y-61877700D01*
X139509100Y-67878000D02*
X145509400Y-61877700D01*
X139509100Y-70591800D02*
X139509100Y-67878000D01*
X118800500Y-91300400D02*
X139509100Y-70591800D01*
X114510400Y-91300400D02*
X118800500Y-91300400D01*
X112520000Y-89310000D02*
X114510400Y-91300400D01*
D22*
X141840000Y-73680000D02*
X155946000Y-87786000D01*
X182046000Y-87786000D02*
X186340000Y-92080000D01*
X155946000Y-87786000D02*
X182046000Y-87786000D01*
D21*
X93553700Y-54948300D02*
X95144000Y-53358000D01*
X93553700Y-59387700D02*
X93553700Y-54948300D01*
X95144000Y-60978000D02*
X93553700Y-59387700D01*
X170603400Y-80476600D02*
X164700000Y-86380000D01*
X170603400Y-62636600D02*
X170603400Y-80476600D01*
X177340000Y-55900000D02*
X170603400Y-62636600D01*
D22*
X95679763Y-72922001D02*
X97337762Y-74580000D01*
X105074800Y-82330000D02*
X105074800Y-89045700D01*
X97337762Y-74580000D02*
X97337762Y-74592962D01*
X97337762Y-74592962D02*
X105074800Y-82330000D01*
X95144000Y-63518000D02*
X96421600Y-64795600D01*
X119961200Y-92791400D02*
X131452600Y-81300000D01*
X96421600Y-64795600D02*
X96421600Y-66591200D01*
X96421600Y-66591200D02*
X96352001Y-66660799D01*
X96352001Y-66660799D02*
X96352001Y-67185761D01*
X96352001Y-67185761D02*
X95695761Y-67842001D01*
X93866110Y-72303872D02*
X94484239Y-72922001D01*
X131452600Y-81300000D02*
X141840000Y-81300000D01*
X108820500Y-92791400D02*
X119961200Y-92791400D01*
X95695761Y-67842001D02*
X94304382Y-67842001D01*
X94304382Y-67842001D02*
X93866383Y-68280000D01*
X105074800Y-89045700D02*
X108820500Y-92791400D01*
X93866383Y-68280000D02*
X93866110Y-72303872D01*
X94484239Y-72922001D02*
X95679763Y-72922001D01*
X166156200Y-82383800D02*
X164700000Y-83840000D01*
X166156200Y-52650200D02*
X166156200Y-82383800D01*
X164564800Y-51058800D02*
X166156200Y-52650200D01*
X102523200Y-51058800D02*
X164564800Y-51058800D01*
X95144000Y-58438000D02*
X102523200Y-51058800D01*
X95144000Y-66058000D02*
X94772600Y-66058000D01*
X94772600Y-66058000D02*
X93166100Y-67664500D01*
X140558800Y-93491700D02*
X150514300Y-83536200D01*
X93166100Y-67664500D02*
X93166100Y-74143862D01*
X93166100Y-74143862D02*
X94484239Y-75462001D01*
X94484239Y-75462001D02*
X96212201Y-75462001D01*
X96212201Y-75462001D02*
X104126800Y-83376600D01*
X104126800Y-83376600D02*
X104126800Y-89088000D01*
X104126800Y-89088000D02*
X108530500Y-93491700D01*
X108530500Y-93491700D02*
X140558800Y-93491700D01*
X108240000Y-70400900D02*
X124153700Y-70400900D01*
X106696700Y-70400900D02*
X108240000Y-70400900D01*
X106032901Y-70400900D02*
X102490000Y-66857999D01*
X97962001Y-66857999D02*
X102490000Y-66857999D01*
X108240000Y-70400900D02*
X106032901Y-70400900D01*
X95090000Y-69120000D02*
X95700000Y-69120000D01*
X95700000Y-69120000D02*
X97962001Y-66857999D01*
X155748800Y-67268800D02*
X149507900Y-67268800D01*
X164700000Y-76220000D02*
X155748800Y-67268800D01*
X124153700Y-70400900D02*
X129443200Y-65111400D01*
D23*
X137840000Y-57565000D02*
X134908000Y-60497000D01*
X137840000Y-53580000D02*
X137840000Y-57565000D01*
X132760000Y-53580000D02*
X132760000Y-56630300D01*
X132043500Y-57346800D02*
X132043500Y-61952500D01*
X132760000Y-56630300D02*
X132043500Y-57346800D01*
M02*
