G04 #@! TF.FileFunction,Legend,Bot*
%FSLAX46Y46*%
G04 Gerber Fmt 4.6, Leading zero omitted, Abs format (unit mm)*
G04 Created by KiCad (PCBNEW 4.0.7) date 06/30/19 20:04:18*
%MOMM*%
%LPD*%
G01*
G04 APERTURE LIST*
%ADD10C,0.100000*%
%ADD11C,0.150000*%
%ADD12C,0.120000*%
%ADD13C,0.010000*%
G04 APERTURE END LIST*
D10*
D11*
X146920000Y-82570000D02*
X146920000Y-68600000D01*
X146920000Y-68600000D02*
X159620000Y-68600000D01*
X159620000Y-68600000D02*
X159620000Y-82570000D01*
X159620000Y-82570000D02*
X146920000Y-82570000D01*
X144380000Y-83840000D02*
X162160000Y-83840000D01*
X162160000Y-83840000D02*
X162160000Y-60980000D01*
X162160000Y-60980000D02*
X144380000Y-60980000D01*
X144380000Y-60980000D02*
X144380000Y-83840000D01*
D12*
X125580000Y-54860000D02*
X125580000Y-45500000D01*
X125580000Y-45500000D02*
X145020000Y-45500000D01*
X145020000Y-45500000D02*
X145020000Y-54860000D01*
X125580000Y-54860000D02*
X131710000Y-54860000D01*
X145020000Y-54860000D02*
X138890000Y-54860000D01*
X133810000Y-54860000D02*
X136790000Y-54860000D01*
X130380000Y-48780000D02*
X140220000Y-48780000D01*
X130380000Y-54860000D02*
X130380000Y-45500000D01*
X140220000Y-54860000D02*
X140220000Y-45500000D01*
X133060000Y-56180000D02*
X132760000Y-55580000D01*
X132760000Y-55580000D02*
X132460000Y-56180000D01*
X132460000Y-56180000D02*
X133060000Y-56180000D01*
X146560000Y-54860000D02*
X146560000Y-45500000D01*
X146560000Y-45500000D02*
X171080000Y-45500000D01*
X171080000Y-45500000D02*
X171080000Y-54860000D01*
X146560000Y-54860000D02*
X152690000Y-54860000D01*
X171080000Y-54860000D02*
X164950000Y-54860000D01*
X154790000Y-54860000D02*
X157770000Y-54860000D01*
X159870000Y-54860000D02*
X162850000Y-54860000D01*
X151360000Y-48780000D02*
X166280000Y-48780000D01*
X151360000Y-54860000D02*
X151360000Y-45500000D01*
X166280000Y-54860000D02*
X166280000Y-45500000D01*
X154040000Y-56180000D02*
X153740000Y-55580000D01*
X153740000Y-55580000D02*
X153440000Y-56180000D01*
X153440000Y-56180000D02*
X154040000Y-56180000D01*
X104660000Y-54860000D02*
X104660000Y-45500000D01*
X104660000Y-45500000D02*
X124100000Y-45500000D01*
X124100000Y-45500000D02*
X124100000Y-54860000D01*
X104660000Y-54860000D02*
X110790000Y-54860000D01*
X124100000Y-54860000D02*
X117970000Y-54860000D01*
X112890000Y-54860000D02*
X115870000Y-54860000D01*
X109460000Y-48780000D02*
X119300000Y-48780000D01*
X109460000Y-54860000D02*
X109460000Y-45500000D01*
X119300000Y-54860000D02*
X119300000Y-45500000D01*
X112140000Y-56180000D02*
X111840000Y-55580000D01*
X111840000Y-55580000D02*
X111540000Y-56180000D01*
X111540000Y-56180000D02*
X112140000Y-56180000D01*
D13*
G36*
X193463778Y-58525919D02*
X193449303Y-58701576D01*
X193412070Y-58925727D01*
X193378263Y-59076252D01*
X193177486Y-59650877D01*
X192887217Y-60169327D01*
X192518056Y-60623220D01*
X192080602Y-61004173D01*
X191585456Y-61303802D01*
X191043219Y-61513726D01*
X190464491Y-61625561D01*
X190133556Y-61642223D01*
X189539174Y-61588607D01*
X188979252Y-61433374D01*
X188463045Y-61184946D01*
X187999807Y-60851744D01*
X187598795Y-60442192D01*
X187269261Y-59964711D01*
X187020462Y-59427722D01*
X186861651Y-58839648D01*
X186830662Y-58636556D01*
X186790326Y-58312000D01*
X181836222Y-58312000D01*
X181836222Y-58813083D01*
X182076111Y-58844695D01*
X182235998Y-58864102D01*
X182470738Y-58890564D01*
X182742855Y-58919917D01*
X182908309Y-58937167D01*
X183152149Y-58963005D01*
X183349014Y-58985353D01*
X183475280Y-59001436D01*
X183509520Y-59007791D01*
X183519427Y-59064321D01*
X183536686Y-59202711D01*
X183556648Y-59384445D01*
X183594874Y-59751334D01*
X182826940Y-60083155D01*
X182517434Y-60219861D01*
X182301047Y-60323424D01*
X182165417Y-60400918D01*
X182098181Y-60459418D01*
X182086976Y-60505997D01*
X182087124Y-60506489D01*
X182117235Y-60604624D01*
X182169192Y-60774078D01*
X182231766Y-60978235D01*
X182232000Y-60979000D01*
X182296698Y-61166816D01*
X182357193Y-61302898D01*
X182401098Y-61359704D01*
X182403350Y-61360000D01*
X182475795Y-61348307D01*
X182636588Y-61316239D01*
X182863965Y-61268314D01*
X183136163Y-61209048D01*
X183219111Y-61190667D01*
X183497284Y-61129208D01*
X183734026Y-61077705D01*
X183908522Y-61040627D01*
X183999962Y-61022439D01*
X184008106Y-61021334D01*
X184045651Y-61067660D01*
X184116865Y-61188884D01*
X184202838Y-61351976D01*
X184369745Y-61682617D01*
X183748531Y-62233314D01*
X183476352Y-62481109D01*
X183290328Y-62666127D01*
X183186120Y-62793075D01*
X183159385Y-62866659D01*
X183160595Y-62870732D01*
X183208091Y-62956858D01*
X183297885Y-63093865D01*
X183410412Y-63254688D01*
X183526108Y-63412267D01*
X183625409Y-63539537D01*
X183688751Y-63609435D01*
X183698889Y-63615341D01*
X183754880Y-63588364D01*
X183889824Y-63513587D01*
X184085815Y-63401201D01*
X184324952Y-63261396D01*
X184432667Y-63197713D01*
X185138222Y-62779231D01*
X185412397Y-63050018D01*
X185686571Y-63320804D01*
X185289940Y-63991402D01*
X185143899Y-64240596D01*
X185019266Y-64457562D01*
X184927191Y-64622569D01*
X184878822Y-64715882D01*
X184874654Y-64726391D01*
X184908697Y-64786562D01*
X185015574Y-64892165D01*
X185175317Y-65024358D01*
X185251111Y-65081614D01*
X185646222Y-65372446D01*
X185984889Y-64989449D01*
X186172836Y-64778383D01*
X186366178Y-64563665D01*
X186529033Y-64385093D01*
X186557763Y-64354011D01*
X186791971Y-64101570D01*
X187108097Y-64261515D01*
X187272978Y-64355191D01*
X187387349Y-64439768D01*
X187424222Y-64490847D01*
X187412803Y-64566384D01*
X187381949Y-64727729D01*
X187336767Y-64950504D01*
X187282361Y-65210326D01*
X187223837Y-65482817D01*
X187166302Y-65743595D01*
X187114860Y-65968280D01*
X187114520Y-65969725D01*
X187111069Y-66033000D01*
X187148128Y-66084714D01*
X187245126Y-66137336D01*
X187421495Y-66203333D01*
X187542184Y-66244134D01*
X187760664Y-66309674D01*
X187933466Y-66347790D01*
X188034647Y-66353185D01*
X188047494Y-66347306D01*
X188087163Y-66279959D01*
X188161735Y-66129539D01*
X188261404Y-65916631D01*
X188376366Y-65661822D01*
X188406727Y-65593120D01*
X188717116Y-64887778D01*
X188959669Y-64901969D01*
X189144713Y-64912336D01*
X189280793Y-64928942D01*
X189377075Y-64967355D01*
X189442729Y-65043147D01*
X189486922Y-65171886D01*
X189518820Y-65369142D01*
X189547593Y-65650484D01*
X189574480Y-65946111D01*
X189640701Y-66665778D01*
X190141128Y-66665778D01*
X190363021Y-66663462D01*
X190534450Y-66657266D01*
X190630039Y-66648314D01*
X190641555Y-66643585D01*
X190648945Y-66498487D01*
X190668895Y-66287552D01*
X190698079Y-66034761D01*
X190733173Y-65764097D01*
X190770849Y-65499545D01*
X190807781Y-65265085D01*
X190840644Y-65084702D01*
X190866111Y-64982378D01*
X190873881Y-64968398D01*
X190952211Y-64944361D01*
X191095399Y-64917000D01*
X191265975Y-64891490D01*
X191426465Y-64873008D01*
X191539400Y-64866730D01*
X191570017Y-64872236D01*
X191594408Y-64926916D01*
X191654739Y-65066012D01*
X191742635Y-65270115D01*
X191849719Y-65519814D01*
X191881178Y-65593334D01*
X191994883Y-65855756D01*
X192095281Y-66081093D01*
X192172981Y-66248724D01*
X192218590Y-66338030D01*
X192223836Y-66345655D01*
X192291165Y-66350791D01*
X192433380Y-66327804D01*
X192618558Y-66285126D01*
X192814781Y-66231189D01*
X192990125Y-66174424D01*
X193112670Y-66123264D01*
X193143990Y-66102591D01*
X193149254Y-66034397D01*
X193131951Y-65876953D01*
X193095201Y-65650935D01*
X193042124Y-65377019D01*
X193015784Y-65252987D01*
X192954905Y-64968051D01*
X192905340Y-64725596D01*
X192870944Y-64545342D01*
X192855575Y-64447011D01*
X192855793Y-64434812D01*
X192934397Y-64386621D01*
X193071924Y-64317367D01*
X193233533Y-64242782D01*
X193384379Y-64178600D01*
X193489618Y-64140556D01*
X193516053Y-64136675D01*
X193567488Y-64183376D01*
X193677749Y-64299018D01*
X193831691Y-64467262D01*
X194014173Y-64671769D01*
X194055275Y-64718445D01*
X194242108Y-64931049D01*
X194403012Y-65114030D01*
X194522817Y-65250147D01*
X194586355Y-65322158D01*
X194590998Y-65327376D01*
X194647927Y-65314032D01*
X194769924Y-65249080D01*
X194931858Y-65148795D01*
X195108599Y-65029450D01*
X195275016Y-64907321D01*
X195402543Y-64801828D01*
X195392649Y-64740287D01*
X195332942Y-64600773D01*
X195232383Y-64401693D01*
X195099937Y-64161457D01*
X195041800Y-64060968D01*
X194894589Y-63809622D01*
X194768394Y-63593832D01*
X194673915Y-63431919D01*
X194621854Y-63342209D01*
X194615459Y-63330937D01*
X194643405Y-63277907D01*
X194733737Y-63170845D01*
X194863313Y-63036542D01*
X195128889Y-62774989D01*
X195806222Y-63174396D01*
X196056273Y-63321081D01*
X196273430Y-63447039D01*
X196438231Y-63541088D01*
X196531215Y-63592045D01*
X196542158Y-63597242D01*
X196595253Y-63564782D01*
X196692859Y-63464760D01*
X196814860Y-63322175D01*
X196941142Y-63162025D01*
X197051587Y-63009306D01*
X197126081Y-62889018D01*
X197143034Y-62850537D01*
X197109606Y-62794838D01*
X197005571Y-62680199D01*
X196845643Y-62521601D01*
X196644535Y-62334025D01*
X196568222Y-62265266D01*
X196353451Y-62071622D01*
X196170849Y-61903538D01*
X196036145Y-61775755D01*
X195965070Y-61703019D01*
X195958230Y-61693537D01*
X195973850Y-61631217D01*
X196024746Y-61503000D01*
X196095179Y-61343692D01*
X196169408Y-61188100D01*
X196231693Y-61071031D01*
X196256367Y-61034238D01*
X196313098Y-61040171D01*
X196460293Y-61066800D01*
X196678231Y-61110269D01*
X196947191Y-61166722D01*
X197074542Y-61194229D01*
X197362377Y-61253218D01*
X197610978Y-61297188D01*
X197799666Y-61323017D01*
X197907767Y-61327587D01*
X197924146Y-61322435D01*
X197969262Y-61238114D01*
X198024219Y-61085252D01*
X198080586Y-60895721D01*
X198129933Y-60701387D01*
X198163829Y-60534121D01*
X198173842Y-60425792D01*
X198167210Y-60403647D01*
X198100503Y-60367857D01*
X197950431Y-60297440D01*
X197737588Y-60201772D01*
X197482568Y-60090232D01*
X197414889Y-60061075D01*
X197156196Y-59949769D01*
X196937768Y-59855417D01*
X196778997Y-59786426D01*
X196699275Y-59751197D01*
X196693792Y-59748548D01*
X196688649Y-59690340D01*
X196699241Y-59558690D01*
X196720399Y-59391094D01*
X196746958Y-59225048D01*
X196773749Y-59098047D01*
X196789667Y-59052788D01*
X196858505Y-59022087D01*
X197014584Y-58987512D01*
X197232598Y-58953905D01*
X197417603Y-58932638D01*
X197693795Y-58904522D01*
X197955131Y-58876807D01*
X198163978Y-58853536D01*
X198247444Y-58843513D01*
X198487333Y-58813083D01*
X198487333Y-58312000D01*
X193463778Y-58312000D01*
X193463778Y-58525919D01*
X193463778Y-58525919D01*
G37*
X193463778Y-58525919D02*
X193449303Y-58701576D01*
X193412070Y-58925727D01*
X193378263Y-59076252D01*
X193177486Y-59650877D01*
X192887217Y-60169327D01*
X192518056Y-60623220D01*
X192080602Y-61004173D01*
X191585456Y-61303802D01*
X191043219Y-61513726D01*
X190464491Y-61625561D01*
X190133556Y-61642223D01*
X189539174Y-61588607D01*
X188979252Y-61433374D01*
X188463045Y-61184946D01*
X187999807Y-60851744D01*
X187598795Y-60442192D01*
X187269261Y-59964711D01*
X187020462Y-59427722D01*
X186861651Y-58839648D01*
X186830662Y-58636556D01*
X186790326Y-58312000D01*
X181836222Y-58312000D01*
X181836222Y-58813083D01*
X182076111Y-58844695D01*
X182235998Y-58864102D01*
X182470738Y-58890564D01*
X182742855Y-58919917D01*
X182908309Y-58937167D01*
X183152149Y-58963005D01*
X183349014Y-58985353D01*
X183475280Y-59001436D01*
X183509520Y-59007791D01*
X183519427Y-59064321D01*
X183536686Y-59202711D01*
X183556648Y-59384445D01*
X183594874Y-59751334D01*
X182826940Y-60083155D01*
X182517434Y-60219861D01*
X182301047Y-60323424D01*
X182165417Y-60400918D01*
X182098181Y-60459418D01*
X182086976Y-60505997D01*
X182087124Y-60506489D01*
X182117235Y-60604624D01*
X182169192Y-60774078D01*
X182231766Y-60978235D01*
X182232000Y-60979000D01*
X182296698Y-61166816D01*
X182357193Y-61302898D01*
X182401098Y-61359704D01*
X182403350Y-61360000D01*
X182475795Y-61348307D01*
X182636588Y-61316239D01*
X182863965Y-61268314D01*
X183136163Y-61209048D01*
X183219111Y-61190667D01*
X183497284Y-61129208D01*
X183734026Y-61077705D01*
X183908522Y-61040627D01*
X183999962Y-61022439D01*
X184008106Y-61021334D01*
X184045651Y-61067660D01*
X184116865Y-61188884D01*
X184202838Y-61351976D01*
X184369745Y-61682617D01*
X183748531Y-62233314D01*
X183476352Y-62481109D01*
X183290328Y-62666127D01*
X183186120Y-62793075D01*
X183159385Y-62866659D01*
X183160595Y-62870732D01*
X183208091Y-62956858D01*
X183297885Y-63093865D01*
X183410412Y-63254688D01*
X183526108Y-63412267D01*
X183625409Y-63539537D01*
X183688751Y-63609435D01*
X183698889Y-63615341D01*
X183754880Y-63588364D01*
X183889824Y-63513587D01*
X184085815Y-63401201D01*
X184324952Y-63261396D01*
X184432667Y-63197713D01*
X185138222Y-62779231D01*
X185412397Y-63050018D01*
X185686571Y-63320804D01*
X185289940Y-63991402D01*
X185143899Y-64240596D01*
X185019266Y-64457562D01*
X184927191Y-64622569D01*
X184878822Y-64715882D01*
X184874654Y-64726391D01*
X184908697Y-64786562D01*
X185015574Y-64892165D01*
X185175317Y-65024358D01*
X185251111Y-65081614D01*
X185646222Y-65372446D01*
X185984889Y-64989449D01*
X186172836Y-64778383D01*
X186366178Y-64563665D01*
X186529033Y-64385093D01*
X186557763Y-64354011D01*
X186791971Y-64101570D01*
X187108097Y-64261515D01*
X187272978Y-64355191D01*
X187387349Y-64439768D01*
X187424222Y-64490847D01*
X187412803Y-64566384D01*
X187381949Y-64727729D01*
X187336767Y-64950504D01*
X187282361Y-65210326D01*
X187223837Y-65482817D01*
X187166302Y-65743595D01*
X187114860Y-65968280D01*
X187114520Y-65969725D01*
X187111069Y-66033000D01*
X187148128Y-66084714D01*
X187245126Y-66137336D01*
X187421495Y-66203333D01*
X187542184Y-66244134D01*
X187760664Y-66309674D01*
X187933466Y-66347790D01*
X188034647Y-66353185D01*
X188047494Y-66347306D01*
X188087163Y-66279959D01*
X188161735Y-66129539D01*
X188261404Y-65916631D01*
X188376366Y-65661822D01*
X188406727Y-65593120D01*
X188717116Y-64887778D01*
X188959669Y-64901969D01*
X189144713Y-64912336D01*
X189280793Y-64928942D01*
X189377075Y-64967355D01*
X189442729Y-65043147D01*
X189486922Y-65171886D01*
X189518820Y-65369142D01*
X189547593Y-65650484D01*
X189574480Y-65946111D01*
X189640701Y-66665778D01*
X190141128Y-66665778D01*
X190363021Y-66663462D01*
X190534450Y-66657266D01*
X190630039Y-66648314D01*
X190641555Y-66643585D01*
X190648945Y-66498487D01*
X190668895Y-66287552D01*
X190698079Y-66034761D01*
X190733173Y-65764097D01*
X190770849Y-65499545D01*
X190807781Y-65265085D01*
X190840644Y-65084702D01*
X190866111Y-64982378D01*
X190873881Y-64968398D01*
X190952211Y-64944361D01*
X191095399Y-64917000D01*
X191265975Y-64891490D01*
X191426465Y-64873008D01*
X191539400Y-64866730D01*
X191570017Y-64872236D01*
X191594408Y-64926916D01*
X191654739Y-65066012D01*
X191742635Y-65270115D01*
X191849719Y-65519814D01*
X191881178Y-65593334D01*
X191994883Y-65855756D01*
X192095281Y-66081093D01*
X192172981Y-66248724D01*
X192218590Y-66338030D01*
X192223836Y-66345655D01*
X192291165Y-66350791D01*
X192433380Y-66327804D01*
X192618558Y-66285126D01*
X192814781Y-66231189D01*
X192990125Y-66174424D01*
X193112670Y-66123264D01*
X193143990Y-66102591D01*
X193149254Y-66034397D01*
X193131951Y-65876953D01*
X193095201Y-65650935D01*
X193042124Y-65377019D01*
X193015784Y-65252987D01*
X192954905Y-64968051D01*
X192905340Y-64725596D01*
X192870944Y-64545342D01*
X192855575Y-64447011D01*
X192855793Y-64434812D01*
X192934397Y-64386621D01*
X193071924Y-64317367D01*
X193233533Y-64242782D01*
X193384379Y-64178600D01*
X193489618Y-64140556D01*
X193516053Y-64136675D01*
X193567488Y-64183376D01*
X193677749Y-64299018D01*
X193831691Y-64467262D01*
X194014173Y-64671769D01*
X194055275Y-64718445D01*
X194242108Y-64931049D01*
X194403012Y-65114030D01*
X194522817Y-65250147D01*
X194586355Y-65322158D01*
X194590998Y-65327376D01*
X194647927Y-65314032D01*
X194769924Y-65249080D01*
X194931858Y-65148795D01*
X195108599Y-65029450D01*
X195275016Y-64907321D01*
X195402543Y-64801828D01*
X195392649Y-64740287D01*
X195332942Y-64600773D01*
X195232383Y-64401693D01*
X195099937Y-64161457D01*
X195041800Y-64060968D01*
X194894589Y-63809622D01*
X194768394Y-63593832D01*
X194673915Y-63431919D01*
X194621854Y-63342209D01*
X194615459Y-63330937D01*
X194643405Y-63277907D01*
X194733737Y-63170845D01*
X194863313Y-63036542D01*
X195128889Y-62774989D01*
X195806222Y-63174396D01*
X196056273Y-63321081D01*
X196273430Y-63447039D01*
X196438231Y-63541088D01*
X196531215Y-63592045D01*
X196542158Y-63597242D01*
X196595253Y-63564782D01*
X196692859Y-63464760D01*
X196814860Y-63322175D01*
X196941142Y-63162025D01*
X197051587Y-63009306D01*
X197126081Y-62889018D01*
X197143034Y-62850537D01*
X197109606Y-62794838D01*
X197005571Y-62680199D01*
X196845643Y-62521601D01*
X196644535Y-62334025D01*
X196568222Y-62265266D01*
X196353451Y-62071622D01*
X196170849Y-61903538D01*
X196036145Y-61775755D01*
X195965070Y-61703019D01*
X195958230Y-61693537D01*
X195973850Y-61631217D01*
X196024746Y-61503000D01*
X196095179Y-61343692D01*
X196169408Y-61188100D01*
X196231693Y-61071031D01*
X196256367Y-61034238D01*
X196313098Y-61040171D01*
X196460293Y-61066800D01*
X196678231Y-61110269D01*
X196947191Y-61166722D01*
X197074542Y-61194229D01*
X197362377Y-61253218D01*
X197610978Y-61297188D01*
X197799666Y-61323017D01*
X197907767Y-61327587D01*
X197924146Y-61322435D01*
X197969262Y-61238114D01*
X198024219Y-61085252D01*
X198080586Y-60895721D01*
X198129933Y-60701387D01*
X198163829Y-60534121D01*
X198173842Y-60425792D01*
X198167210Y-60403647D01*
X198100503Y-60367857D01*
X197950431Y-60297440D01*
X197737588Y-60201772D01*
X197482568Y-60090232D01*
X197414889Y-60061075D01*
X197156196Y-59949769D01*
X196937768Y-59855417D01*
X196778997Y-59786426D01*
X196699275Y-59751197D01*
X196693792Y-59748548D01*
X196688649Y-59690340D01*
X196699241Y-59558690D01*
X196720399Y-59391094D01*
X196746958Y-59225048D01*
X196773749Y-59098047D01*
X196789667Y-59052788D01*
X196858505Y-59022087D01*
X197014584Y-58987512D01*
X197232598Y-58953905D01*
X197417603Y-58932638D01*
X197693795Y-58904522D01*
X197955131Y-58876807D01*
X198163978Y-58853536D01*
X198247444Y-58843513D01*
X198487333Y-58813083D01*
X198487333Y-58312000D01*
X193463778Y-58312000D01*
X193463778Y-58525919D01*
G36*
X188628690Y-54399104D02*
X188589453Y-54835276D01*
X188648494Y-55240177D01*
X188797248Y-55601510D01*
X189027151Y-55906979D01*
X189329639Y-56144287D01*
X189696148Y-56301140D01*
X189992444Y-56357113D01*
X190205730Y-56365372D01*
X190409422Y-56352999D01*
X190472222Y-56342699D01*
X190839976Y-56210027D01*
X191157372Y-55991561D01*
X191413178Y-55705344D01*
X191596166Y-55369419D01*
X191695104Y-55001830D01*
X191698761Y-54620620D01*
X191661657Y-54431676D01*
X191596885Y-54192019D01*
X191392213Y-54396691D01*
X191050173Y-54661763D01*
X190654498Y-54828219D01*
X190209365Y-54894401D01*
X190133555Y-54895574D01*
X189739849Y-54861854D01*
X189403121Y-54753250D01*
X189088957Y-54556139D01*
X188927526Y-54418244D01*
X188672661Y-54183318D01*
X188628690Y-54399104D01*
X188628690Y-54399104D01*
G37*
X188628690Y-54399104D02*
X188589453Y-54835276D01*
X188648494Y-55240177D01*
X188797248Y-55601510D01*
X189027151Y-55906979D01*
X189329639Y-56144287D01*
X189696148Y-56301140D01*
X189992444Y-56357113D01*
X190205730Y-56365372D01*
X190409422Y-56352999D01*
X190472222Y-56342699D01*
X190839976Y-56210027D01*
X191157372Y-55991561D01*
X191413178Y-55705344D01*
X191596166Y-55369419D01*
X191695104Y-55001830D01*
X191698761Y-54620620D01*
X191661657Y-54431676D01*
X191596885Y-54192019D01*
X191392213Y-54396691D01*
X191050173Y-54661763D01*
X190654498Y-54828219D01*
X190209365Y-54894401D01*
X190133555Y-54895574D01*
X189739849Y-54861854D01*
X189403121Y-54753250D01*
X189088957Y-54556139D01*
X188927526Y-54418244D01*
X188672661Y-54183318D01*
X188628690Y-54399104D01*
G36*
X191178554Y-53734960D02*
X190997850Y-53900236D01*
X190696618Y-54143835D01*
X190378286Y-54277830D01*
X190052551Y-54302279D01*
X189729110Y-54217238D01*
X189417661Y-54022765D01*
X189274720Y-53889992D01*
X189092001Y-53724316D01*
X188954815Y-53651591D01*
X188867760Y-53672775D01*
X188835432Y-53788826D01*
X188835333Y-53798439D01*
X188884335Y-53961516D01*
X189017595Y-54143109D01*
X189214499Y-54319959D01*
X189408024Y-54444596D01*
X189744511Y-54573458D01*
X190119010Y-54627864D01*
X190488087Y-54604291D01*
X190694976Y-54549029D01*
X190880225Y-54455051D01*
X191073088Y-54315537D01*
X191250753Y-54152839D01*
X191390412Y-53989308D01*
X191469255Y-53847298D01*
X191477893Y-53781816D01*
X191428525Y-53666190D01*
X191328413Y-53650654D01*
X191178554Y-53734960D01*
X191178554Y-53734960D01*
G37*
X191178554Y-53734960D02*
X190997850Y-53900236D01*
X190696618Y-54143835D01*
X190378286Y-54277830D01*
X190052551Y-54302279D01*
X189729110Y-54217238D01*
X189417661Y-54022765D01*
X189274720Y-53889992D01*
X189092001Y-53724316D01*
X188954815Y-53651591D01*
X188867760Y-53672775D01*
X188835432Y-53788826D01*
X188835333Y-53798439D01*
X188884335Y-53961516D01*
X189017595Y-54143109D01*
X189214499Y-54319959D01*
X189408024Y-54444596D01*
X189744511Y-54573458D01*
X190119010Y-54627864D01*
X190488087Y-54604291D01*
X190694976Y-54549029D01*
X190880225Y-54455051D01*
X191073088Y-54315537D01*
X191250753Y-54152839D01*
X191390412Y-53989308D01*
X191469255Y-53847298D01*
X191477893Y-53781816D01*
X191428525Y-53666190D01*
X191328413Y-53650654D01*
X191178554Y-53734960D01*
G36*
X189742310Y-48638435D02*
X189440431Y-48643168D01*
X189204404Y-48653656D01*
X189010717Y-48672030D01*
X188835855Y-48700416D01*
X188656306Y-48740945D01*
X188481012Y-48786917D01*
X187721954Y-49046474D01*
X186990825Y-49401449D01*
X186304382Y-49840339D01*
X185679384Y-50351639D01*
X185132590Y-50923846D01*
X184865039Y-51269054D01*
X184695825Y-51523145D01*
X184527764Y-51805114D01*
X184372381Y-52092167D01*
X184241203Y-52361509D01*
X184145758Y-52590348D01*
X184097570Y-52755888D01*
X184094000Y-52793798D01*
X184140022Y-53024756D01*
X184259642Y-53242404D01*
X184388459Y-53369685D01*
X184552423Y-53433158D01*
X184768765Y-53454835D01*
X184985403Y-53434625D01*
X185150254Y-53372438D01*
X185152312Y-53371013D01*
X185230227Y-53285123D01*
X185339954Y-53123953D01*
X185464363Y-52913950D01*
X185542628Y-52768368D01*
X185856751Y-52235428D01*
X186224014Y-51739627D01*
X186619825Y-51312843D01*
X186769556Y-51177983D01*
X187356336Y-50746769D01*
X187997118Y-50400115D01*
X188675402Y-50143194D01*
X189374694Y-49981175D01*
X190078496Y-49919230D01*
X190683889Y-49951042D01*
X191434675Y-50098193D01*
X192147074Y-50347428D01*
X192811850Y-50692022D01*
X193419763Y-51125253D01*
X193961575Y-51640397D01*
X194428048Y-52230731D01*
X194809944Y-52889531D01*
X194856591Y-52987831D01*
X195031835Y-53302808D01*
X195219945Y-53509061D01*
X195428281Y-53610622D01*
X195664204Y-53611522D01*
X195873125Y-53544496D01*
X196058158Y-53406329D01*
X196182990Y-53194310D01*
X196229545Y-52939326D01*
X196229555Y-52935484D01*
X196204678Y-52797074D01*
X196137913Y-52593573D01*
X196041064Y-52359195D01*
X196001807Y-52275296D01*
X195583580Y-51537868D01*
X195076827Y-50865123D01*
X194490106Y-50264138D01*
X193831977Y-49741992D01*
X193110998Y-49305760D01*
X192335729Y-48962522D01*
X191782061Y-48785893D01*
X191580970Y-48733605D01*
X191404072Y-48695198D01*
X191227895Y-48668557D01*
X191028966Y-48651567D01*
X190783815Y-48642113D01*
X190468969Y-48638078D01*
X190133555Y-48637331D01*
X189742310Y-48638435D01*
X189742310Y-48638435D01*
G37*
X189742310Y-48638435D02*
X189440431Y-48643168D01*
X189204404Y-48653656D01*
X189010717Y-48672030D01*
X188835855Y-48700416D01*
X188656306Y-48740945D01*
X188481012Y-48786917D01*
X187721954Y-49046474D01*
X186990825Y-49401449D01*
X186304382Y-49840339D01*
X185679384Y-50351639D01*
X185132590Y-50923846D01*
X184865039Y-51269054D01*
X184695825Y-51523145D01*
X184527764Y-51805114D01*
X184372381Y-52092167D01*
X184241203Y-52361509D01*
X184145758Y-52590348D01*
X184097570Y-52755888D01*
X184094000Y-52793798D01*
X184140022Y-53024756D01*
X184259642Y-53242404D01*
X184388459Y-53369685D01*
X184552423Y-53433158D01*
X184768765Y-53454835D01*
X184985403Y-53434625D01*
X185150254Y-53372438D01*
X185152312Y-53371013D01*
X185230227Y-53285123D01*
X185339954Y-53123953D01*
X185464363Y-52913950D01*
X185542628Y-52768368D01*
X185856751Y-52235428D01*
X186224014Y-51739627D01*
X186619825Y-51312843D01*
X186769556Y-51177983D01*
X187356336Y-50746769D01*
X187997118Y-50400115D01*
X188675402Y-50143194D01*
X189374694Y-49981175D01*
X190078496Y-49919230D01*
X190683889Y-49951042D01*
X191434675Y-50098193D01*
X192147074Y-50347428D01*
X192811850Y-50692022D01*
X193419763Y-51125253D01*
X193961575Y-51640397D01*
X194428048Y-52230731D01*
X194809944Y-52889531D01*
X194856591Y-52987831D01*
X195031835Y-53302808D01*
X195219945Y-53509061D01*
X195428281Y-53610622D01*
X195664204Y-53611522D01*
X195873125Y-53544496D01*
X196058158Y-53406329D01*
X196182990Y-53194310D01*
X196229545Y-52939326D01*
X196229555Y-52935484D01*
X196204678Y-52797074D01*
X196137913Y-52593573D01*
X196041064Y-52359195D01*
X196001807Y-52275296D01*
X195583580Y-51537868D01*
X195076827Y-50865123D01*
X194490106Y-50264138D01*
X193831977Y-49741992D01*
X193110998Y-49305760D01*
X192335729Y-48962522D01*
X191782061Y-48785893D01*
X191580970Y-48733605D01*
X191404072Y-48695198D01*
X191227895Y-48668557D01*
X191028966Y-48651567D01*
X190783815Y-48642113D01*
X190468969Y-48638078D01*
X190133555Y-48637331D01*
X189742310Y-48638435D01*
G36*
X189677397Y-45936642D02*
X189163040Y-45965403D01*
X188720267Y-46017960D01*
X188666000Y-46027220D01*
X187642951Y-46263819D01*
X186673920Y-46597240D01*
X185763095Y-47024395D01*
X184914663Y-47542196D01*
X184132811Y-48147556D01*
X183421726Y-48837385D01*
X182785596Y-49608595D01*
X182228607Y-50458100D01*
X181943740Y-50984926D01*
X181781450Y-51334637D01*
X181686823Y-51612081D01*
X181658702Y-51834478D01*
X181695931Y-52019050D01*
X181797353Y-52183017D01*
X181858800Y-52249867D01*
X182011520Y-52378485D01*
X182156993Y-52433757D01*
X182268022Y-52441567D01*
X182460955Y-52422808D01*
X182622586Y-52357404D01*
X182768191Y-52231041D01*
X182913043Y-52029409D01*
X183072415Y-51738193D01*
X183119093Y-51644034D01*
X183579457Y-50827748D01*
X184127872Y-50080808D01*
X184760280Y-49407295D01*
X185472620Y-48811293D01*
X186260833Y-48296881D01*
X186662222Y-48081504D01*
X187353378Y-47777707D01*
X188093787Y-47529301D01*
X188703294Y-47379650D01*
X189126868Y-47317480D01*
X189624501Y-47281744D01*
X190160588Y-47272088D01*
X190699525Y-47288158D01*
X191205705Y-47329601D01*
X191643525Y-47396061D01*
X191707255Y-47409524D01*
X192652082Y-47672200D01*
X193530332Y-48025940D01*
X194341067Y-48469968D01*
X195083355Y-49003506D01*
X195756259Y-49625777D01*
X196358844Y-50336003D01*
X196890175Y-51133409D01*
X197349317Y-52017216D01*
X197407281Y-52146656D01*
X197550455Y-52392224D01*
X197731144Y-52540341D01*
X197970427Y-52605243D01*
X198095064Y-52611111D01*
X198267017Y-52593244D01*
X198404724Y-52523452D01*
X198521200Y-52419200D01*
X198643147Y-52269355D01*
X198707151Y-52108937D01*
X198711957Y-51920119D01*
X198656309Y-51685076D01*
X198538953Y-51385979D01*
X198432228Y-51155511D01*
X197939730Y-50256693D01*
X197363355Y-49428821D01*
X196709115Y-48676500D01*
X195983025Y-48004337D01*
X195191097Y-47416938D01*
X194339345Y-46918908D01*
X193433782Y-46514854D01*
X192480423Y-46209382D01*
X191771664Y-46053763D01*
X191310471Y-45990238D01*
X190785063Y-45949350D01*
X190229388Y-45931387D01*
X189677397Y-45936642D01*
X189677397Y-45936642D01*
G37*
X189677397Y-45936642D02*
X189163040Y-45965403D01*
X188720267Y-46017960D01*
X188666000Y-46027220D01*
X187642951Y-46263819D01*
X186673920Y-46597240D01*
X185763095Y-47024395D01*
X184914663Y-47542196D01*
X184132811Y-48147556D01*
X183421726Y-48837385D01*
X182785596Y-49608595D01*
X182228607Y-50458100D01*
X181943740Y-50984926D01*
X181781450Y-51334637D01*
X181686823Y-51612081D01*
X181658702Y-51834478D01*
X181695931Y-52019050D01*
X181797353Y-52183017D01*
X181858800Y-52249867D01*
X182011520Y-52378485D01*
X182156993Y-52433757D01*
X182268022Y-52441567D01*
X182460955Y-52422808D01*
X182622586Y-52357404D01*
X182768191Y-52231041D01*
X182913043Y-52029409D01*
X183072415Y-51738193D01*
X183119093Y-51644034D01*
X183579457Y-50827748D01*
X184127872Y-50080808D01*
X184760280Y-49407295D01*
X185472620Y-48811293D01*
X186260833Y-48296881D01*
X186662222Y-48081504D01*
X187353378Y-47777707D01*
X188093787Y-47529301D01*
X188703294Y-47379650D01*
X189126868Y-47317480D01*
X189624501Y-47281744D01*
X190160588Y-47272088D01*
X190699525Y-47288158D01*
X191205705Y-47329601D01*
X191643525Y-47396061D01*
X191707255Y-47409524D01*
X192652082Y-47672200D01*
X193530332Y-48025940D01*
X194341067Y-48469968D01*
X195083355Y-49003506D01*
X195756259Y-49625777D01*
X196358844Y-50336003D01*
X196890175Y-51133409D01*
X197349317Y-52017216D01*
X197407281Y-52146656D01*
X197550455Y-52392224D01*
X197731144Y-52540341D01*
X197970427Y-52605243D01*
X198095064Y-52611111D01*
X198267017Y-52593244D01*
X198404724Y-52523452D01*
X198521200Y-52419200D01*
X198643147Y-52269355D01*
X198707151Y-52108937D01*
X198711957Y-51920119D01*
X198656309Y-51685076D01*
X198538953Y-51385979D01*
X198432228Y-51155511D01*
X197939730Y-50256693D01*
X197363355Y-49428821D01*
X196709115Y-48676500D01*
X195983025Y-48004337D01*
X195191097Y-47416938D01*
X194339345Y-46918908D01*
X193433782Y-46514854D01*
X192480423Y-46209382D01*
X191771664Y-46053763D01*
X191310471Y-45990238D01*
X190785063Y-45949350D01*
X190229388Y-45931387D01*
X189677397Y-45936642D01*
D11*
X136633333Y-55832381D02*
X136633333Y-56546667D01*
X136680953Y-56689524D01*
X136776191Y-56784762D01*
X136919048Y-56832381D01*
X137014286Y-56832381D01*
X135728571Y-56165714D02*
X135728571Y-56832381D01*
X135966667Y-55784762D02*
X136204762Y-56499048D01*
X135585714Y-56499048D01*
X159153333Y-55832381D02*
X159153333Y-56546667D01*
X159200953Y-56689524D01*
X159296191Y-56784762D01*
X159439048Y-56832381D01*
X159534286Y-56832381D01*
X158153333Y-56832381D02*
X158724762Y-56832381D01*
X158439048Y-56832381D02*
X158439048Y-55832381D01*
X158534286Y-55975238D01*
X158629524Y-56070476D01*
X158724762Y-56118095D01*
X115713333Y-55832381D02*
X115713333Y-56546667D01*
X115760953Y-56689524D01*
X115856191Y-56784762D01*
X115999048Y-56832381D01*
X116094286Y-56832381D01*
X115332381Y-55832381D02*
X114713333Y-55832381D01*
X115046667Y-56213333D01*
X114903809Y-56213333D01*
X114808571Y-56260952D01*
X114760952Y-56308571D01*
X114713333Y-56403810D01*
X114713333Y-56641905D01*
X114760952Y-56737143D01*
X114808571Y-56784762D01*
X114903809Y-56832381D01*
X115189524Y-56832381D01*
X115284762Y-56784762D01*
X115332381Y-56737143D01*
M02*
