G04 #@! TF.FileFunction,Copper,L1,Top,Signal*
%FSLAX46Y46*%
G04 Gerber Fmt 4.6, Leading zero omitted, Abs format (unit mm)*
G04 Created by KiCad (PCBNEW 4.0.7) date 06/30/19 20:04:18*
%MOMM*%
%LPD*%
G01*
G04 APERTURE LIST*
%ADD10C,0.100000*%
%ADD11R,2.032000X1.727200*%
%ADD12O,2.032000X1.727200*%
%ADD13C,1.800000*%
%ADD14C,1.524000*%
%ADD15R,1.800000X3.600000*%
%ADD16O,1.800000X3.600000*%
%ADD17R,1.400000X1.400000*%
%ADD18C,1.400000*%
%ADD19C,3.000000*%
%ADD20C,0.600000*%
%ADD21C,0.400000*%
%ADD22C,1.000000*%
%ADD23C,1.500000*%
G04 APERTURE END LIST*
D10*
D11*
X177340000Y-55900000D03*
D12*
X177340000Y-58440000D03*
X177340000Y-60980000D03*
X177340000Y-63520000D03*
D13*
X141840000Y-68600000D03*
X141840000Y-71140000D03*
X141840000Y-73680000D03*
X141840000Y-76220000D03*
X141840000Y-78760000D03*
X141840000Y-81300000D03*
X141840000Y-83840000D03*
X141840000Y-86380000D03*
X164700000Y-86380000D03*
X164700000Y-83840000D03*
X164700000Y-81300000D03*
X164700000Y-78760000D03*
X164700000Y-76220000D03*
X164700000Y-73680000D03*
X164700000Y-71140000D03*
X164700000Y-68600000D03*
D14*
X107818000Y-63592000D03*
X107818000Y-69132000D03*
X134908000Y-60497000D03*
X134908000Y-64817000D03*
D15*
X132760000Y-53580000D03*
D16*
X137840000Y-53580000D03*
D10*
G36*
X162816060Y-60030550D02*
X162816060Y-63929450D01*
X159315940Y-62829630D01*
X159315940Y-61130370D01*
X162816060Y-60030550D01*
X162816060Y-60030550D01*
G37*
G36*
X154489940Y-63929450D02*
X154489940Y-60030550D01*
X157990060Y-61130370D01*
X157990060Y-62829630D01*
X154489940Y-63929450D01*
X154489940Y-63929450D01*
G37*
G36*
X128623060Y-66884550D02*
X128623060Y-70783450D01*
X125122940Y-69683630D01*
X125122940Y-67984370D01*
X128623060Y-66884550D01*
X128623060Y-66884550D01*
G37*
G36*
X120296940Y-70783450D02*
X120296940Y-66884550D01*
X123797060Y-67984370D01*
X123797060Y-69683630D01*
X120296940Y-70783450D01*
X120296940Y-70783450D01*
G37*
G36*
X151616060Y-60030550D02*
X151616060Y-63929450D01*
X148115940Y-62829630D01*
X148115940Y-61130370D01*
X151616060Y-60030550D01*
X151616060Y-60030550D01*
G37*
G36*
X143289940Y-63929450D02*
X143289940Y-60030550D01*
X146790060Y-61130370D01*
X146790060Y-62829630D01*
X143289940Y-63929450D01*
X143289940Y-63929450D01*
G37*
G36*
X128623060Y-72218550D02*
X128623060Y-76117450D01*
X125122940Y-75017630D01*
X125122940Y-73318370D01*
X128623060Y-72218550D01*
X128623060Y-72218550D01*
G37*
G36*
X120296940Y-76117450D02*
X120296940Y-72218550D01*
X123797060Y-73318370D01*
X123797060Y-75017630D01*
X120296940Y-76117450D01*
X120296940Y-76117450D01*
G37*
G36*
X128623060Y-61550550D02*
X128623060Y-65449450D01*
X125122940Y-64349630D01*
X125122940Y-62650370D01*
X128623060Y-61550550D01*
X128623060Y-61550550D01*
G37*
G36*
X120296940Y-65449450D02*
X120296940Y-61550550D01*
X123797060Y-62650370D01*
X123797060Y-64349630D01*
X120296940Y-65449450D01*
X120296940Y-65449450D01*
G37*
D15*
X153740000Y-53580000D03*
D16*
X158820000Y-53580000D03*
X163900000Y-53580000D03*
D15*
X111840000Y-53580000D03*
D16*
X116920000Y-53580000D03*
D10*
G36*
X119225060Y-61550550D02*
X119225060Y-65449450D01*
X115724940Y-64349630D01*
X115724940Y-62650370D01*
X119225060Y-61550550D01*
X119225060Y-61550550D01*
G37*
G36*
X110898940Y-65449450D02*
X110898940Y-61550550D01*
X114399060Y-62650370D01*
X114399060Y-64349630D01*
X110898940Y-65449450D01*
X110898940Y-65449450D01*
G37*
D17*
X125230000Y-81680000D03*
D18*
X125230000Y-89300000D03*
X112540000Y-81680000D03*
X107450000Y-81680000D03*
X117610000Y-81680000D03*
X112520000Y-89310000D03*
X107440000Y-89310000D03*
X117610000Y-89300000D03*
D13*
X186340000Y-77580000D03*
X186340000Y-92080000D03*
X188840000Y-92080000D03*
X191340000Y-92080000D03*
X191340000Y-77580000D03*
D19*
X194440000Y-84580000D03*
X183240000Y-84580000D03*
D10*
G36*
X119225060Y-56724550D02*
X119225060Y-60623450D01*
X115724940Y-59523630D01*
X115724940Y-57824370D01*
X119225060Y-56724550D01*
X119225060Y-56724550D01*
G37*
G36*
X110898940Y-60623450D02*
X110898940Y-56724550D01*
X114399060Y-57824370D01*
X114399060Y-59523630D01*
X110898940Y-60623450D01*
X110898940Y-60623450D01*
G37*
D14*
X95090000Y-53880000D03*
X95090000Y-56420000D03*
X95090000Y-58960000D03*
X95090000Y-61500000D03*
X95090000Y-64040000D03*
X95090000Y-66580000D03*
X95090000Y-69120000D03*
X95090000Y-71660000D03*
X95090000Y-74200000D03*
X95090000Y-76740000D03*
X95090000Y-79280000D03*
X95090000Y-81820000D03*
X95090000Y-84360000D03*
X95090000Y-86900000D03*
D20*
X143401700Y-66424100D03*
X133750300Y-85599000D03*
X148482500Y-82498100D03*
X150514300Y-83536200D03*
X129443200Y-65111400D03*
X149507900Y-67268800D03*
X132043500Y-61952500D03*
D21*
X100490000Y-66004500D02*
X98487498Y-66004500D01*
X98487498Y-66004500D02*
X97800997Y-65317999D01*
X97800997Y-65317999D02*
X94484239Y-65317999D01*
X94484239Y-65317999D02*
X93827999Y-65974239D01*
X93827999Y-65974239D02*
X93827999Y-70397999D01*
X93827999Y-70397999D02*
X95090000Y-71660000D01*
X100277500Y-66004500D02*
X100490000Y-66004500D01*
X100490000Y-66004500D02*
X122918800Y-66004500D01*
X146916700Y-59030700D02*
X149866000Y-61980000D01*
X128028300Y-59030700D02*
X146916700Y-59030700D01*
X124347200Y-62711800D02*
X128028300Y-59030700D01*
X124347200Y-64576100D02*
X124347200Y-62711800D01*
X122918800Y-66004500D02*
X124347200Y-64576100D01*
X152316900Y-59529100D02*
X149866000Y-61980000D01*
X158615100Y-59529100D02*
X152316900Y-59529100D01*
X161066000Y-61980000D02*
X158615100Y-59529100D01*
D22*
X141840000Y-83840000D02*
X146930000Y-88930000D01*
X166836229Y-87729999D02*
X165636228Y-88930000D01*
X188840000Y-92080000D02*
X188140000Y-92080000D01*
X188140000Y-92080000D02*
X188040001Y-91980001D01*
X188040001Y-91980001D02*
X188040001Y-91263999D01*
X188040001Y-91263999D02*
X185556013Y-88780011D01*
X185556013Y-88780011D02*
X178914013Y-88780011D01*
X178914013Y-88780011D02*
X177864001Y-87729999D01*
X177864001Y-87729999D02*
X166836229Y-87729999D01*
X165636228Y-88930000D02*
X146930000Y-88930000D01*
X107821700Y-55898000D02*
X110139700Y-53580000D01*
X95144000Y-55898000D02*
X107821700Y-55898000D01*
X111840000Y-53580000D02*
X110139700Y-53580000D01*
X159443900Y-65183900D02*
X177340000Y-65183900D01*
X156240000Y-61980000D02*
X159443900Y-65183900D01*
X177340000Y-63520000D02*
X177340000Y-65183900D01*
X107818000Y-69132000D02*
X121749000Y-69132000D01*
X121749000Y-69132000D02*
X122047000Y-68834000D01*
X122047000Y-86117000D02*
X125230000Y-89300000D01*
X122047000Y-74168000D02*
X122047000Y-86117000D01*
X121749000Y-73870000D02*
X121749000Y-69132000D01*
X122047000Y-74168000D02*
X121749000Y-73870000D01*
X135513500Y-80053500D02*
X141840000Y-86380000D01*
X135513500Y-77474500D02*
X135513500Y-80053500D01*
X126873000Y-68834000D02*
X135513500Y-77474500D01*
X126873000Y-63500000D02*
X126873000Y-68834000D01*
D21*
X143401700Y-63618300D02*
X143401700Y-66424100D01*
X145040000Y-61980000D02*
X143401700Y-63618300D01*
X125230000Y-81680000D02*
X125230000Y-81079800D01*
X157300600Y-73680000D02*
X164700000Y-73680000D01*
X148482500Y-82498100D02*
X157300600Y-73680000D01*
X126873000Y-81079800D02*
X126873000Y-74168000D01*
X125230000Y-81079800D02*
X126873000Y-81079800D01*
X129231100Y-81079800D02*
X133750300Y-85599000D01*
X126873000Y-81079800D02*
X129231100Y-81079800D01*
X117475000Y-63500000D02*
X122047000Y-63500000D01*
X191340000Y-92080000D02*
X187040001Y-87780001D01*
X187040001Y-87780001D02*
X181890001Y-87780001D01*
X165372001Y-87780001D02*
X150860001Y-87780001D01*
X181890001Y-87780001D02*
X179290000Y-85180000D01*
X179290000Y-85180000D02*
X167972002Y-85180000D01*
X167972002Y-85180000D02*
X165372001Y-87780001D01*
X150860001Y-87780001D02*
X144590000Y-81510000D01*
X144590000Y-81510000D02*
X141840000Y-78760000D01*
X164700000Y-78760000D02*
X165972792Y-78760000D01*
X165972792Y-78760000D02*
X166192793Y-78980001D01*
X166192793Y-78980001D02*
X189939999Y-78980001D01*
X189939999Y-78980001D02*
X190440001Y-78479999D01*
X190440001Y-78479999D02*
X191340000Y-77580000D01*
X164984900Y-79044900D02*
X164700000Y-78760000D01*
D22*
X172058500Y-50770900D02*
X105740000Y-50770900D01*
X95090000Y-53880000D02*
X95851999Y-53118001D01*
X95851999Y-53118001D02*
X103392899Y-53118001D01*
X103392899Y-53118001D02*
X105740000Y-50770900D01*
X177340000Y-55900000D02*
X177187600Y-55900000D01*
X177187600Y-55900000D02*
X172058500Y-50770900D01*
D21*
X178856500Y-59956500D02*
X177340000Y-58440000D01*
X178856500Y-65099600D02*
X178856500Y-59956500D01*
X176756500Y-67199600D02*
X178856500Y-65099600D01*
X150860400Y-67199600D02*
X176756500Y-67199600D01*
X141840000Y-76220000D02*
X150860400Y-67199600D01*
X152750500Y-81300000D02*
X150514300Y-83536200D01*
X164700000Y-81300000D02*
X152750500Y-81300000D01*
X130618300Y-66286500D02*
X129443200Y-65111400D01*
X142048000Y-66286500D02*
X130618300Y-66286500D01*
X143030300Y-67268800D02*
X142048000Y-66286500D01*
X149507900Y-67268800D02*
X143030300Y-67268800D01*
D22*
X117475000Y-58674000D02*
X112649000Y-63500000D01*
X116920000Y-58119000D02*
X116920000Y-53580000D01*
X117475000Y-58674000D02*
X116920000Y-58119000D01*
D23*
X132043500Y-61952500D02*
X134908000Y-64817000D01*
D21*
X107818000Y-63505000D02*
X107818000Y-63592000D01*
X112649000Y-58674000D02*
X107818000Y-63505000D01*
M02*
